<svg width="38" height="42" viewBox="0 0 38 42" fill="none"
    xmlns="http://www.w3.org/2000/svg">
    <g id="Icon">
        <path id="Vector 1" d="M5.5 17.7143V14.0938C5.5 13.2911 5.82165 12.5219 6.39303 11.9582L15.393 3.07875C16.5612 1.92618 18.4388 1.92618 19.607 3.07875L28.607 11.9582C29.1784 12.5219 29.5 13.2911 29.5 14.0938V37C29.5 38.6569 28.1569 40 26.5 40H8.5C6.84315 40 5.5 38.6569 5.5 37V35.125" stroke="black" stroke-width="3" stroke-linecap="round"/>
        <g id="Group 2">
            <path id="Vector 2" d="M30.4823 19.7648C29.8002 19.2948 28.8661 19.4668 28.3961 20.149C27.9261 20.8312 28.0981 21.7652 28.7803 22.2352L30.4823 19.7648ZM28.7803 22.2352C31.0687 23.8119 32.4966 25.1639 33.2893 26.2635C34.0853 27.3678 34.1208 28.0371 34.0338 28.3843C33.946 28.7349 33.6198 29.2103 32.6828 29.671C31.7543 30.1277 30.4076 30.4709 28.7019 30.6274C21.8132 31.2597 10.7367 28.725 3.48937 22.3652L1.51063 24.6201C9.45683 31.5932 21.3804 34.3121 28.9761 33.6149C30.8915 33.439 32.6337 33.0384 34.0068 32.3631C35.3715 31.692 36.5596 30.6473 36.9439 29.1133C37.329 27.5757 36.7943 25.9957 35.7229 24.5092C34.6481 23.0182 32.9111 21.4381 30.4823 19.7648L28.7803 22.2352Z" fill="black"/>
            <path id="Vector 3" d="M11.5 23.5L2 23V31" stroke="black" stroke-width="3" stroke-linecap="round"/>
        </g>
    </g>
</svg>
