<svg width="3040" height="2056" viewBox="0 0 3040 2056" fill="none" xmlns="http://www.w3.org/2000/svg">
<path d="M269.5 215.65L296.5 219.792M269.5 215.65L958 119.5L1205.5 154L1542.52 200.382M269.5 215.65L262 214.5M458.5 244.64L540 231.5L843 279.5L817.5 283.5M458.5 244.64L488.5 249.242M458.5 244.64L424 239.349M488.5 249.242L764 291.5L817.5 283.5M488.5 249.242L540 240L817.5 283.5M296.5 219.792L424 239.349M296.5 219.792L667 166.5L958 125.5L1520.5 203.715M424 239.349L540 223L967 287.5L1520.5 203.715M667 150.5L958 110L1576.5 195.238M214 218V225.5M214 218L211 217V213.5L667.5 150.5M214 218L762.5 301.5L879 284L967 296.5L1596.5 200.382M214 225.5V1586L233 1595M214 225.5L762.5 311M233 1595L245.5 1590M233 1595V1475.5L245.5 1478.5M245.5 1590V1478.5M245.5 1590L326 1611V1606.5M245.5 1478.5L248.5 1479.28M423 1642.5L402 1635.5V1630.5M423 1642.5L430.5 1640M423 1642.5V1523.5L430.5 1525.4M430.5 1640L486 1654M430.5 1640V1525.4M486 1654V1539.5L430.5 1525.4M486 1654V1659.5L506.5 1664M1596.5 200.382V198L1576.5 195.238M1596.5 200.382V208.382M1596.5 208.382V356M1596.5 208.382L967 304.5L879 293.5L762.5 311M762.5 311V654.5M1520.5 203.715L1542.52 200.382M1542.52 200.382L1576.5 195.238M326 1499.33L387.5 1515.25M326 1499.33L248.5 1479.28M326 1499.33V1606.5M387.5 1515.25V1627L402 1630.5M387.5 1515.25L390 1515.89M402 1630.5V1627M402 1627V1519L390 1515.89M402 1627L390 1624V1515.89M248.5 1479.28V1586L326 1606.5M241.929 1296.5V1327L247 1328.23M241.929 1296.5L324.69 1316.5V1311.5M241.929 1296.5L247 1293.5M247 1328.23L259.948 1331.35M247 1328.23V1441M259.948 1331.35L324.69 1347V1458.5M259.948 1331.35V1444M380.195 1478L324.69 1465V1458.5M380.195 1478V1360L402 1365.5M380.195 1478L383.5 1479L389 1474M402 1365.5V1334.5M402 1365.5V1477M234 1447L402 1489V1477M234 1447V1181L247 1183.9M234 1447L247 1441M324.69 1201.24L383.5 1214.37M324.69 1201.24V1311.5M324.69 1201.24L260 1186.8M383.5 1214.37V1330.5M383.5 1214.37L389 1215.6M383.5 1330.5L402 1334.5M383.5 1330.5L389 1327M402 1334.5V1329.5M389 1327V1215.6M389 1327L402 1329.5M389 1215.6L402 1218.5V1329.5M389 1474V1362.6M389 1474L402 1477M247 1183.9V1293.5M247 1183.9L260 1186.8M247 1293.5L259.948 1296.5M324.69 1311.5L259.948 1296.5M260 1186.8L259.948 1296.5M259.948 1444L324.69 1458.5M259.948 1444L247 1441M241.929 1002V1030.53L324.69 1049V1161.6M241.929 1002L324.69 1018.5V1013M241.929 1002L247 996.5M383.5 1182.03L324.69 1168.08V1161.6M383.5 1182.03V1062.5L389 1063.83M383.5 1182.03L389 1177.05M389 1063.83L402 1066.99M389 1063.83V1177.05M402 1066.99V1034.87M402 1066.99V1180.04M234 1152L402 1189.5V1180.04M234 1152V885.5L247 888M234 1152L247 1146M324.69 905.178L383.5 918.262M324.69 905.178V1013M324.69 905.178L260 890.785M383.5 918.262V1031.75M383.5 918.262L389 919.486M383.5 1031.75L402 1034.87M383.5 1031.75L389 1029M402 1034.87V1031M389 1029V919.486M389 1029L402 1031M389 919.486L402 921.5V1031M389 1177.05L402 1180.04M247 888V996.5M247 888L260 890.785M247 996.5L259.948 999M324.69 1013L259.948 999M260 890.785L259.948 999M259.948 1034.87V1147.15M259.948 1147.15L324.69 1161.6M259.948 1147.15L247 1146M247 1031.75V1146M241.929 706.5V737.366L247 738.294M241.929 706.5L324.69 721V715.5M241.929 706.5L247 704M247 738.294L254 739.574M247 738.294V738.232M247 738.294V852M254 739.574L324.69 752.5V865.5M254 739.574V739.428M254 739.574V850.5M383.5 884.532L324.69 870.578V865.5M383.5 884.532V765L389 766.333M383.5 884.532L389 879.549M389 766.333L402 769.485M389 766.333V879.549M402 769.485V736M402 769.485V882.539M234 854.5L402 892V882.539M234 854.5V591.5L247 594M234 854.5L247 852M324.69 608.5L385 619.203M324.69 608.5V715.5M324.69 608.5L254 595.5M385 619.203V733.703M385 619.203L389 619M385 733.703L402 736M385 733.703L389 729.5M402 736V731M389 729.5V619M389 729.5L402 731M389 619L402 621V731M389 879.549L402 882.539M247 594V704M247 594L254 595.5M247 704L254 702M324.69 715.5L254 702M254 595.5V702M254 850.5L324.69 865.5M254 850.5L247 852M247 442.927L241.929 442.135V412L247 412.797M247 442.927L254 444.02M247 442.927V557.5M254 444.02L324.69 455.061V566M254 444.02V554.5M383.5 583.039L324.69 572.5V566M383.5 583.039V465.5L402 468.5M383.5 583.039L389 580.049M402 468.5V436.5M402 468.5V583.039M402 589L234 560M402 589V583.039M402 589L424 593M234 560V292M234 560L247 557.5M234 292V257.5L241.929 258.774M234 292L241.929 293.525M247 412.797L324.69 425V419.5M247 412.797V294.5M247 412.797L254 409M324.69 307L385 317M324.69 307V419.5M324.69 307L254 296M385 317V434.203M385 317H389M385 434.203L402 436.5M385 434.203L389 430M402 436.5V431.5M389 430V317M389 430L402 431.5M389 317L402 319M402 319V431.5M402 319V284.5L241.929 258.774M389 580.049V466.833M389 580.049L402 583.039M247 294.5L254 296M247 294.5L241.929 293.525M324.69 419.5L254 409M254 296V409M254 554.5L324.69 566M254 554.5L247 557.5M241.929 258.774V293.525M424 593V288L446.5 291.504M424 593L446.5 589V468.5M424 593L485 604.83M446.5 291.504L485 297.5V427.5M446.5 291.504V433M485 604.83L506.5 609M485 604.83V463M506.5 609L529.5 604V571M506.5 609V301L529.5 304.651M506.5 609L569.5 620.25M569.5 620.25L590.5 624M569.5 620.25V458.5M590.5 624L613 619.5V317.653M590.5 624V314.212M590.5 624L655 635.316M655 635.316L676 639M655 635.316V473.5M676 639L699 633.5V601.5M676 639V327.052M676 639L741 650.647M676 327.052L655 324M676 327.052L699 330.395M741 650.647V336.5L715 332.721M741 650.647L762.5 654.5M762.5 654.5L787 649M762.5 654.5L763 1729M787 649V643M787 649L879 633.5M879 324V633.5M879 324L857.5 327.21M879 324L886.5 325.196M879 633.5L857.5 629.992M879 633.5L886.5 633.093M857.5 629.992L787 643M857.5 629.992V627M787 643V616.994M857.5 327.21L802 334.523M857.5 327.21V354.5M802 616.994V334.523M802 616.994L793 619.5M802 616.994L826.5 621.5V501.5M802 334.523L793 335.709M793 619.5L787 616.994M793 619.5V335.709M787 616.994V336.5L793 335.709M707.5 604L715 601.5V332.721M707.5 604L699 601.5M707.5 604V331.631M699 601.5V330.395M699 330.395L707.5 331.631M613.5 585.5L623.5 589M623.5 589L635 585.5V469.333M623.5 589V319.211M635 320.959L655 324M635 320.959L623.5 319.211M635 320.959V433.5M655 324V436M623.5 319.211L569.5 311M707.5 331.631L715 332.721M552.5 308.302L569.5 311M552.5 308.302L540.5 306.397M552.5 308.302V419.5M569.5 311V422M540.5 574L552.5 571V455.262M540.5 574L529.5 571M540.5 574V306.397M529.5 571V454.5M540.5 306.397L529.5 304.651M945 642.625V334.523L886.5 325.196M945 642.625L886.5 633.093M945 642.625V645.089L966.5 649M966.5 649L989 645.089M966.5 649V304.5M966.5 649V1421.5M989 645.089V642M989 645.089L1058 633.093M1045.5 325.5L989 334.523V642M1045.5 325.5L1050 324.5M1045.5 325.5V359.954M1049 480L1043.61 478.312L1045.5 359.954M1049 480L1050 324.5M1049 480L1009 487V481.5M1049 480V512L1046.31 512.539M1050 324.5L1058 322.75M1045.5 359.954L1009 366V370.5M1009 426.5L1040 421.5L1040.5 365L1009 370.5M1009 426.5V370.5M1009 426.5V434.5M1009 434.5L1040.5 428.5V475.5L1009 481.5M1009 434.5V481.5M446.5 468.5V438.5M446.5 468.5L485 463M446.5 438.5L485 433M446.5 438.5V433M485 433V463M485 433V427.5M446.5 433L485 427.5M635 433.5L655 436M635 433.5V439.083M655 436V442M655 442V473.5M655 442L635 439.083M655 473.5L635 469.333M635 439.083L631 438.5V468.5L635 469.333M552.5 419.5L569.5 422M552.5 419.5V425.071M569.5 422V427.5M569.5 427.5V458.5M569.5 427.5L552.5 425.071M569.5 458.5L552.5 455.262M552.5 425.071L548.5 424.5V454.5L552.5 455.262M529.5 426L532 425.071V455.262L529.5 454.5M529.5 426V454.5M529.5 426V304.651M826.5 501.5V470.5M826.5 501.5L830.5 502.145M826.5 470.5V350.5L857.5 354.5M826.5 470.5L857.5 475.5M857.5 354.5V358M857.5 475.5V506.5M857.5 475.5V469M830.5 616.994L834 617.708M830.5 616.994V621.5L857.5 627M830.5 616.994V502.145M834 617.708L857.5 622.5M834 617.708V571L857.5 574M857.5 622.5V627M857.5 622.5V574M830.5 502.145L857.5 506.5M857.5 506.5V510M857.5 574V567M857.5 567L834 564V506.5L857.5 510M857.5 567V510M857.5 469V423.5M857.5 469L834 465.5V420M857.5 423.5V416M857.5 423.5L834 420M857.5 416V358M857.5 416L834 412.5M857.5 358L834 355.5V412.5M834 420V412.5M1043.61 513.077L1009 520V524.5M1043.61 513.077V629.992L1046.31 630.649M1043.61 513.077L1046.31 512.539M1058 633.093V322.75M1058 633.093L1046.31 630.649M1058 633.093L1080 629.269M1058 322.75L1080 319.256M1046.31 512.539V630.649M1009 579.25L1040.5 574V518L1009 524.5M1009 579.25V524.5M1009 579.25V587M1009 587L1040.5 581V628.5L1009 635M1009 587V635M1009 635V638.5L989 642M1563 242H1574.5V352.857M1563 242L1512.5 250.575M1563 242V351.147M1574.5 352.857L1563 351.147M1574.5 352.857L2046.25 423V464.862M1146.5 617.708L1135 615.5V496.5L1099 503.5V508.5M1146.5 617.708L1168.5 613.181M1146.5 617.708V308.696M1146.5 617.708L1080 629.269M1343 581.738L1407 571M1343 581.738L1323.5 586M1343 581.738V461.5M1407 571L1393.5 567.5V453M1407 571L1418.5 567.5V565.5M1407 571V415.5M1407 571L1473 581.5M1256 291.308L1313 282.256M1256 291.308L1235.5 294.563M1256 291.308V325.5M1313 282.256V584.738M1313 282.256L1323.5 280.589M1313 584.738L1323.5 586M1313 584.738L1287 589.5L1284.5 588.01V472.5L1256 477M1256 598.5L1323.5 586M1256 598.5L1235.5 601.94M1256 598.5V590M1323.5 586V280.589M1323.5 280.589L1343 277.492M1343 277.492V313M1343 277.492L1398.5 268.678M1235.5 601.94V294.563M1235.5 601.94L1225 599.503V296.23M1235.5 601.94L1168.5 613.181M1235.5 294.563L1225 296.23M1225 296.23L1168.5 305.203M1168.5 305.203V613.181M1168.5 305.203L1146.5 308.696M1146.5 308.696L1080 319.256M1080 624.5L1099 621V617M1080 624.5V629.269M1080 624.5V319.256M1099 565L1129.5 559V502L1099 508.5M1099 565V508.5M1099 565V571.5M1099 571.5L1129.5 565V612L1099 617M1099 571.5V617M1099 412.5L1129.5 407V350.5L1099 355M1099 412.5V420M1099 412.5V355M1099 466.5V472.5L1135 467V346.5L1099 352.5V355M1099 466.5L1131 461.5V414.5L1099 420M1099 466.5V420M1256 325.5L1284.5 322.75V434.5M1256 325.5V330.5M1284.5 434.5L1287.5 436V440.5L1256 446M1284.5 434.5L1281 435.114M1256 446V439.5M1256 446V477M1256 439.5L1281 435.114M1256 439.5V395M1281 435.114V389.614L1256 395M1256 387L1279.5 382.5V327.5L1256 330.5M1256 387V330.5M1256 387V395M1256 477V480.5M1256 590L1281.5 586V539L1256 543.5M1256 590V543.5M1256 543.5V537M1256 537L1279.5 532.5V476L1256 480.5M1256 537V480.5M1343 313L1393.5 304.5M1343 313V426.5M1393.5 304.5H1398.5M1393.5 304.5V417L1343 426.5M1398.5 304.5V268.678M1398.5 304.5V421.5M1398.5 268.678L1407 267.329M1407 267.329V375M1407 267.329L1427.5 264.073M1398.5 421.5L1343 431M1398.5 421.5V453H1393.5M1343 431V426.5M1343 431V461.5M1343 461.5L1393.5 453M1418.5 565.5V453M1418.5 565.5L1422 566.046M1418.5 453H1414.5V416.75M1418.5 453L1422 453.546M1414.5 416.75L1407 415.5M1414.5 416.75L1473 426.5M1407 415.5V387.5M1407 387.5V379M1407 387.5L2050.5 483.5M1407 379L2050.5 475M1407 379V375M2050.5 475L2535 388M2050.5 475V483.5M2050.5 483.5L2535 398M2050.5 483.5V515.5M1473 426.5V461.5M1473 426.5L1504 431.277M1473 461.5V574M1473 461.5L1422 453.546M1473 574V581.5M1473 574L1422 566.046M1473 581.5L1527 590.477M1495.5 431V584.738L1504 581.5M1504 431V431.277M1504 431.277V581.5M1504 431.277L1563 440.37M1504 581.5L1533.5 587M1422 453.546V566.046M1592 444.839V597M1592 444.839L1583.5 443.529M1592 444.839L1653.5 454.317M1592 597L1583.5 599.869M1592 597L1623 602.5M1683.5 458.941V611.505M1683.5 458.941L1673.5 457.4M1683.5 458.941L1745 468.419M1683.5 611.505L1673.5 614.83M1683.5 611.505L1711.5 616.5M1775 473.042V626.716L1765 630.04M1775 473.042L1765 471.501M1775 473.042L1838.5 482.828M1963 502.015V659M1963 502.015L1954 500.628M1963 502.015L2026.5 511.801M1963 659L1954 661.458M1963 659L1993.5 663.5V543L2026.5 548M1954 661.458L2026.5 673.51M1954 661.458V500.628M1954 661.458L1931 657.635M2026.5 673.51L2050.5 677.5M2026.5 673.51V663.5M2050.5 677.5V639M2050.5 677.5L2052 677.756M1954 500.628L1931 497.084M2026.5 511.801L2050.5 515.5M2026.5 511.801V548M2050.5 515.5V627.5M1563 440.37L1583.5 443.529M1563 440.37V474.5M1583.5 443.529V599.869M1653.5 454.317L1673.5 457.4M1653.5 454.317V489.5M1673.5 457.4V614.83M1745 468.419L1765 471.501M1745 468.419V504M1765 471.501V470.343M1765 471.501V630.04M1838.5 482.828L1860.5 486.219M1838.5 482.828V642.258M1860.5 486.219L1870 487.683M1860.5 486.219V645.916M1870 487.683L1931 497.084M1870 487.683V523M1931 497.084V654M1860.5 645.916L1931 657.635M1860.5 645.916L1870 643M1860.5 645.916L1838.5 642.258M1931 657.635V654M1870 643V523M1870 643L1877 641M1838.5 642.258L1765 630.04M1765 630.04L1745 626.716M1673.5 614.83L1653.5 611.505M1673.5 614.83L1745 626.716M1583.5 599.869L1563 596.461M1583.5 599.869L1653.5 611.505M1563 480L1537.5 477V531.5L1563 535.5M1563 480V535.5M1563 480V474.5M1563 535.5V543M1563 543L1537.5 539V584.738L1563 589M1563 543V589M1563 589V596.461M1563 596.461L1527 590.477M1533.5 587L1532.5 471L1563 474.5M1533.5 587L1527 590.477M1653.5 611.505V604.5M1745 626.716V619.5M1623 602.5L1624 485L1653.5 489.5M1623 602.5L1628.5 599.869M1653.5 489.5V494.5M1653.5 494.5L1628.5 489.5V546.5L1653.5 550M1653.5 494.5V550M1653.5 550V557.5M1653.5 557.5L1628.5 553.5V599.869M1653.5 557.5V604.5M1628.5 599.869L1653.5 604.5M1745 504L1711.5 498.5V616.5M1745 504V509M1711.5 616.5L1716.5 614.83M1716.5 614.83V567.5L1745 572M1716.5 614.83L1745 619.5M1745 572V565.5M1745 572V619.5M1745 565.5L1716.5 560V504L1745 509M1745 565.5V509M1870 523L1911.5 529.5V534.5M1931 654L1911.5 651V645.916M2026.5 548V552.5M2026.5 663.5L1997.5 659V613L2026.5 617.5M2026.5 663.5V617.5M2026.5 617.5V610M2026.5 610L1997.5 605V548L2026.5 552.5M2026.5 610V552.5M1911.5 592.5L1877 586.5V529.5L1911.5 534.5M1911.5 592.5V534.5M1911.5 592.5V599.5M1911.5 599.5L1877 592.5V641M1911.5 599.5V645.916M1877 641L1911.5 645.916M1407 375L1427.5 372M1427.5 372V331M1427.5 372L2046.25 464.862M1427.5 264.073L1482 255.419M1427.5 264.073V331M1482 255.419V339.103M1482 255.419L1495.5 253.275M1482 339.103L1427.5 331M1482 339.103L1495.5 341.111M1512.5 250.575V343.638M1512.5 250.575L1495.5 253.275M1512.5 343.638L1495.5 341.111M1512.5 343.638L1563 351.147M1495.5 341.111V253.275M2535 388V386L2483.5 379.306M2535 388V398M2483.5 379.306L2384.65 366.456M2483.5 379.306V349.5M2483.5 379.306V388L2055 464.695M2384.65 366.456L1597 264.073M2384.65 366.456L2055 423V464.695M2384.65 366.456L2483.5 349.5M2046.25 464.862L2050.5 465.5L2055 464.695M2483.5 349.5L1597 222M886.5 633.093V325.196M2535 398V469M2535 469L2777.5 504.5M2535 469V498.5M2777.5 504.5V538.025M2777.5 504.5L2684.28 522.83M2777.5 538.025V546.5M2777.5 538.025L2829.5 546.5M2777.5 538.025L2684.28 522.83M2777.5 546.5L2243.5 651.5L2074.5 624M2777.5 546.5L2653.87 528.81M2074.5 624V582.081L2087 584.109M2074.5 624L2070 624.656M2050.5 627.5L2070 624.656M2050.5 627.5V632M2070 624.656V511.801L2125.5 502.015M2125.5 502.015H2133V591.572M2125.5 502.015V538M2133 591.572L2125.5 590.355M2133 591.572L2155 595.142M2125.5 590.355V538M2125.5 590.355L2120.5 589.544M2125.5 538L2120.5 538.974M2087 584.109V545.5L2116 539.851M2087 584.109L2116 588.814M2120.5 538.974V589.544M2120.5 538.974L2116 539.851M2120.5 589.544L2116 588.814M2116 539.851V588.814M2155 595.142V497.084L2205.5 487.277M2155 595.142L2171.5 597.819M2205.5 487.277L2215.5 487.683V604.957M2205.5 487.277V523M2215.5 604.957L2205.5 603.335M2215.5 604.957L2237.5 608.527M2205.5 603.335V523M2205.5 603.335L2199.5 602.361M2205.5 523L2171.5 529.5V534.5M2171.5 597.819V591.572M2171.5 597.819L2199.5 591.572V602.361M2171.5 597.819L2199.5 602.361M2171.5 534.5L2199.5 529.5V586.5L2171.5 591.572M2171.5 534.5V591.572M2237.5 608.527L2243.5 609.5L2253.5 607.5M2237.5 608.527V482.828L2286 473.632M2286 473.632L2298 473.042V598.784M2286 473.632V508.5M2298 598.784L2286 601.143M2298 598.784L2320.5 594.36M2286 601.143V508.5M2286 601.143L2283 601.73M2286 508.5L2253.5 514V518.5M2253.5 607.5V582.5M2253.5 607.5L2283 601.73M2253.5 518.5L2281.5 513V569L2253.5 575.5M2253.5 518.5V575.5M2253.5 575.5V582.5M2253.5 582.5L2283 575.5V601.73M2320.5 594.36V465.5L2372 456.5M2320.5 594.36L2334.68 591.572M2372 456.5H2382.5V582.169M2372 456.5V584.233M2382.5 582.169L2372 584.233M2382.5 582.169L2400.5 578.629M2372 584.233L2367 585.216M2334.68 591.572L2334.76 567.5M2334.68 591.572L2364.5 585.708M2334.99 502.015L2335 498.5L2367 492.878V585.216M2334.99 502.015L2362.5 497.084V554L2334.79 559.5M2334.99 502.015L2334.79 559.5M2334.79 559.5L2334.76 567.5M2334.76 567.5L2364.5 561.107V585.708M2364.5 585.708L2367 585.216M2400.5 578.629V451.5L2450.5 442M2400.5 578.629L2415 575.778M2450.5 442H2459V567.126M2450.5 442V568.798M2459 567.126L2450.5 568.798M2459 567.126L2479.5 563.096M2450.5 568.798L2448 569.289M2415 575.778V552M2415 575.778L2444 570.076M2415 487.277V482.828L2444 477.5H2447.25L2448 569.289M2415 487.277L2444 482.828V539.5L2415 544M2415 487.277V544M2415 544V552M2415 552L2444 546.5V570.076M2444 570.076L2448 569.289M2505 433L2479.5 438V563.096M2505 433H2514V556.312M2505 433V558.081M2684.28 522.83L2653.87 528.81M2684.28 522.83L2535 498.5M2653.87 528.81L2535 552.183M2653.87 528.81L2535 511.801M2535 552.183L2514 556.312M2535 552.183V511.801M2535 552.183V552.5M2514 556.312L2505 558.081M2479.5 563.096L2505 558.081M2829.5 546.5L2243.5 662.25L2050.5 632M2829.5 546.5V555M2535 498.5V511.801M2811 1646L2829.5 1639.53V555M2811 1646L2796 1641M2811 1646V1526L2796 1530.16M2796 1641L2688.5 1673.75M2796 1641V1530.16M2796 1530.16L2688.5 1560M2688.5 1560L2673.5 1564.5V1681M2688.5 1560V1673.75M2673.5 1681L2688.5 1676V1673.75M2673.5 1681V1685L2653.5 1690.5M2653.5 1690.5L2642.5 1688V1687M2653.5 1690.5V1570.5L2637.5 1574.88M2574 1713.94L2595 1706.5V1702.5M2574 1713.94L2563.5 1710.5V1709M2574 1713.94V1591.44L2563.5 1594.51M2495.5 1736.5L2514 1731V1726M2495.5 1736.5L2482.5 1734M2495.5 1736.5V1615.67L2482.5 1618.85M2482.5 1734V1618.85M2482.5 1734L2448.5 1743.5M2482.5 1618.85L2478.5 1619.83M2411.5 1760.5L2433 1753V1749.5M2411.5 1760.5V1637.5L2400.5 1640.66M2411.5 1760.5L2400.5 1757.5M2330 1784L2350.5 1777V1772.5M2330 1784V1659L2317 1662.92M2330 1784L2317 1781.5V1780.5M2243.5 1808L2266.5 1800.5L2266.51 1797.5M2243.5 1808L2220.5 1801.5V1799M2243.5 1808V670.5M2055.5 1640.79L2220.5 1678V1799M2055.5 1640.79L2052 1640V1762M2055.5 1640.79V1760M2052 1762L2055.5 1760M2052 1762L2030.5 1758M2055.5 1760L2220.5 1799M2243.5 670.5L2050.5 639M2243.5 670.5L2829.5 555M2050.5 639V632M2275 1675.59L2267 1678L2266.51 1797.5M2275 1675.59L2282 1673.48M2275 1675.59V1794M2282 1673.48L2314 1663.83M2282 1673.48V1733.24M2266.51 1797.5L2275 1794M2275 1794V1795.5L2282 1793V1792M2317 1662.92L2314 1663.83M2317 1662.92V1780.5M2350.5 1772.5V1655L2358 1652.85M2350.5 1772.5L2358 1770M2358 1770V1652.85M2358 1770V1772.5L2366.5 1770V1768M2358 1652.85L2366.5 1650.41M2366.5 1650.41V1709M2366.5 1650.41L2395 1642.23M2400.5 1757.5V1640.66M2400.5 1757.5L2366.5 1768M2400.5 1640.66L2395 1642.23M2448.5 1627.17L2440.75 1629.33M2448.5 1627.17V1685.83M2448.5 1627.17L2478.5 1619.83M2440.75 1629.33L2433 1631.5V1749.5M2440.75 1629.33L2440.5 1746M2433 1749.5L2440.5 1746M2440.5 1746L2440.5 1748L2448.5 1744.5V1743.5M2514 1726V1609L2529.5 1604.46M2514 1726L2529.5 1721.5V1720M2529.5 1604.46L2558 1596.12M2529.5 1604.46V1663M2563.5 1594.51L2558 1596.12M2563.5 1594.51V1709M2558 1596.12V1653.5L2529.5 1663M2529.5 1663V1670M2529.5 1670L2560 1659V1706.5L2529.5 1716M2529.5 1670V1716M2529.5 1716V1720M2529.5 1720L2563.5 1709M2478.5 1677L2448.5 1685.83M2478.5 1677V1683.5M2478.5 1677V1619.83M2448.5 1685.83V1693M2478.5 1683.5L2448.5 1693M2478.5 1683.5V1731L2448.5 1739.5M2448.5 1693V1739.5M2396.04 1700.5L2366.5 1709M2396.04 1700.5L2396.16 1707.5M2396.04 1700.5L2395 1642.23M2366.5 1709V1716M2396.16 1707.5L2366.5 1716M2396.16 1707.5L2397 1754.5L2366.5 1763.5M2366.5 1716V1763.5M2282 1733.24L2314 1724V1663.83M2282 1733.24V1738.83M2282 1738.83L2314 1729.5V1779L2282 1789.5M2282 1738.83V1789.5M2282 1789.5V1792M2282 1792L2317 1780.5M2366.5 1763.5V1768M2448.5 1739.5V1743.5M2595 1702.5V1586.5L2602.5 1584.45M2595 1702.5L2600 1701H2602.5M2602.5 1701L2610 1698.5V1697.5M2602.5 1701V1584.45M2610 1582.4L2602.5 1584.45M2610 1582.4V1640.45M2610 1582.4L2637.5 1574.88M2610 1640.45L2637.5 1631V1574.88M2610 1640.45V1646M2610 1646L2637.5 1636.5V1685L2610 1693.5M2610 1646V1693.5M2610 1693.5V1697.5M2610 1697.5L2642.5 1687M2642.5 1574.5V1687M2052 1607L2055.5 1605M2052 1607V1329.5L2055.5 1330.25M2052 1607L2220.5 1647.5V1642.23M2055.5 1605V1330.25M2055.5 1605L2220.5 1642.23M2055.5 1330.25L2220.5 1365.5V1642.23M2052 1296.5L2220.5 1337.5V1330.73M2052 1296.5L2055.5 1293.5M2052 1296.5V1019.5L2055.5 1020.14M2055.5 1293.5L2220.5 1330.73M2055.5 1293.5V1020.14M2220.5 1330.73V1050.5L2055.5 1020.14M2052 988.5L2220.5 1020.14V706.5L2055.5 678.353M2052 988.5V677.756M2052 988.5L2055.5 986V678.353M2052 677.756L2055.5 678.353M2329 850.5V693.5L2266 706.5V858.5M2329 850.5L2317.5 848L2317.54 841.5L2318.5 725L2282.5 731.5V735.5M2329 850.5L2266 864M2329 850.5V860M2266 858.5L2282.5 855V849M2266 858.5V864M2266 873.5L2329 860M2266 873.5V864M2266 873.5V1015M2329 860V1005.36M2282.5 849V801M2282.5 849L2313.5 842.364V794.5L2282.5 801M2282.5 794.5L2313.5 788.5V729.5L2282.5 735.5M2282.5 794.5V735.5M2282.5 794.5V801M2349.5 855L2412.5 841.5M2349.5 855V845.5M2349.5 855V996M2412.5 841.5V832M2412.5 841.5V987.5M2349.5 845.5L2412.5 832M2349.5 845.5V841.5M2412.5 832L2401 828.5V708.5L2366 715.5V719M2412.5 832V675.5L2349.5 689V841.5M2349.5 841.5L2366 838V832M2366 784.5V832M2366 784.5L2396 778.5V826.364L2366 832M2366 784.5V777M2366 777L2396 771V713L2366 719M2366 777V719M2810 896L2673.5 929V922.5M2810 896V596L2800.5 597.914M2810 896L2796.25 893V775.981M2800.5 597.914L2673.5 623.5V922.5M2800.5 597.914V626M2800.5 626V744.5M2800.5 626L2794 627.323M2800.5 744.5L2690 769V762.5M2800.5 744.5V775L2796.25 775.981M2800.5 744.5L2794 742.5M2794 627.323L2690 648.5V762.5M2794 627.323V742.5M2794 742.5L2690 762.5M2673.5 922.5L2690 918V914M2792 776.962V889.5L2690 914M2792 776.962L2796.25 775.981M2792 776.962L2690 800.5V914M2810 1196V925.5L2797 928.595M2810 1196L2673.5 1231.5V1226M2810 1196L2796.5 1193.5M2690 954.071L2673.5 958V1226M2690 954.071V1065M2690 954.071L2792 929.786M2800.5 1045L2690 1072V1065M2800.5 1045L2797 1043.5V928.595M2800.5 1045V1075.5L2796.5 1076.48M2797 928.595L2792 929.786M2690 1065L2792 1039V929.786M2673.5 1226L2690 1221.5V1216.5M2690 1216.5V1102.5L2792.5 1077.45M2690 1216.5L2792.5 1191.5M2792.5 1191.5L2796.5 1193.5M2792.5 1191.5V1077.45M2796.5 1193.5V1076.48M2792.5 1077.45L2796.5 1076.48M2810 1495.33L2673.5 1535.5V1530.16M2810 1495.33L2796.5 1493M2810 1495.33V1226L2796.5 1229.46M2796.5 1493V1375.5M2796.5 1493L2792.5 1488M2796.5 1375.5L2800.5 1374.5V1344M2796.5 1375.5L2792.5 1376.59M2673.5 1530.16V1261L2690 1256.77M2673.5 1530.16L2690 1525V1516.5M2800.5 1344L2796.5 1343M2800.5 1344L2690 1374.5V1368M2796.5 1343V1229.46M2796.5 1343L2792.5 1340M2796.5 1229.46L2792.5 1230.49M2690 1256.77V1368M2690 1256.77L2792.5 1230.49M2690 1368L2792.5 1340M2792.5 1340V1230.49M2690 1516.5V1404.5L2792.5 1376.59M2690 1516.5L2792.5 1488M2792.5 1488V1376.59M2493.5 814V659.5L2433 670.234V822.5M2493.5 814L2482.5 811.5V691.5L2448.5 698.5V702.5M2493.5 814L2433 826.364M2433 822.5L2448.5 819.5V814M2433 822.5V826.364M2433 826.364V838M2433 838L2493.5 824.5V969.5M2433 838V977.5M2448.5 814L2479 807.5V760.5L2448.5 767M2448.5 814V767M2448.5 767V760.5M2448.5 760.5L2479 754V696L2448.5 702.5M2448.5 760.5V702.5M2514 819.5L2574 807.5M2514 819.5V810M2514 819.5V958M2574 807.5V797M2574 807.5V950.968M2574 797L2514 810M2574 797L2563 793.5V675.5L2529.5 682.5V686M2574 797V642.5L2514 655V805.5M2514 810V805.5M2514 805.5L2529.5 802.5V797M2529.5 797L2559.5 790.5V743.5L2529.5 750.5M2529.5 797V750.5M2529.5 750.5V743.5M2529.5 743.5L2558 737V680.5L2529.5 686M2529.5 743.5V686M2653 780.5V627.323L2594.5 639V788M2653 780.5V790.5M2653 780.5L2643 776.962V658.5L2610 665V669M2653 780.5L2594.5 793.5M2653 790.5L2594.5 804M2653 790.5V933M2594.5 804V793.5M2594.5 804V940M2594.5 793.5V788M2594.5 788L2610 785.5V779.875M2610 779.875L2640 773.5V726.5L2610 733.5M2610 779.875V733.5M2610 733.5V726.5M2610 726.5L2637.5 720.5V663.5L2610 669M2610 726.5V669M2266 1015V1020.14L2329 1005.36M2266 1015L2282.5 1011.5V1006M2329 1005.36L2318.5 1002L2317.54 880.5L2282.5 888V892M2282.5 1006L2313.5 1000V951L2282.5 958M2282.5 1006V958M2282.5 958V951M2282.5 951L2313.5 944V885.5L2282.5 892M2282.5 951V892M2349.5 996V1002L2412.5 987.5M2349.5 996L2366 992.5V986M2412.5 987.5L2401 983.5V862L2366 869.5V873.5M2366 873.5L2396 867V926L2366 933M2366 873.5V933M2366 933V940M2366 940L2396 933V980.5L2366 986M2366 940V986M2433 977.5V983.5L2493.5 969.5M2433 977.5L2448.5 973.5V968.5M2493.5 969.5L2482.5 965V845.5L2448.5 852.5V857M2448.5 921L2478.5 913.5V962L2448.5 968.5M2448.5 921V968.5M2448.5 921V913.5M2448.5 913.5L2476.5 907V850.5L2448.5 857M2448.5 913.5V857M2514 958V965L2574 950.968M2514 958L2529.5 954.071V949M2574 950.968L2563 946.5V828.5L2529.5 835V838M2529.5 949L2560 943V896.5L2529.5 903M2529.5 949V903M2529.5 903V896.5M2529.5 896.5L2558.5 890V832L2529.5 838M2529.5 896.5V838M2594.5 940V946.5L2653 933M2594.5 940L2610 937V931.5M2653 933L2643 928.595V810L2610 817.5V822M2610 931.5L2639 925.5L2638.5 879L2610 885M2610 931.5V885M2610 885V879M2610 879L2638.5 873.5V815L2610 822M2610 879V822M2266 1176.5V1187.5M2266 1176.5V1171.5M2266 1176.5L2329 1162M2266 1187.5L2329 1171.5M2266 1187.5V1327.5M2329 1171.5V1162M2329 1171.5V1317.15M2329 1162L2318.5 1158V1040M2329 1162V1037.5L2318.5 1040M2318.5 1040L2312.5 1041.2M2266 1171.5V1050.5L2282.5 1047.2M2266 1171.5L2282.5 1167.5V1160.5M2282.5 1160.5L2314 1154.5V1106.5L2282.5 1114.5M2282.5 1160.5V1114.5M2282.5 1114.5V1106.5M2282.5 1106.5L2312.5 1099.5V1041.2M2282.5 1106.5V1047.2M2312.5 1041.2L2282.5 1047.2M2412.5 1141V1017.5L2400.6 1020.14M2412.5 1141V1150.5M2412.5 1141L2400.6 1138V1020.14M2412.5 1150.5L2349.5 1167.5M2412.5 1150.5V1297M2349.5 1167.5V1307.37M2349.5 1167.5V1152.5M2349.5 1152.5L2366 1148V1143M2349.5 1152.5V1031.5L2366 1027.83M2366 1143L2397.5 1135.5V1087L2366 1094.5M2366 1143V1094.5M2366 1094.5V1087M2366 1087L2395 1080.5V1021.39M2366 1087V1027.83M2395 1021.39L2400.6 1020.14M2395 1021.39L2366 1027.83M2433 1132V1013.5L2448.5 1009.9M2433 1132V1135.5M2433 1132L2448.5 1128V1122M2433 1135.5V1146.5M2433 1135.5L2494 1122M2433 1146.5L2494 1132M2433 1146.5V1287M2494 1132V1122M2494 1132V1276M2494 1122L2483 1119L2482.5 1002M2494 1122V999.5L2482.5 1002M2482.5 1002L2477.5 1003.16M2477.5 1003.16V1061L2448.5 1068M2477.5 1003.16L2448.5 1009.9M2448.5 1068V1009.9M2448.5 1068V1075M2448.5 1075L2478.5 1067V1115.5L2448.5 1122M2448.5 1075V1122M2573.5 1102.5V980.5L2563 982.971M2573.5 1102.5V1112.5M2573.5 1102.5L2514 1117.5M2573.5 1102.5L2563 1099.5V982.971M2573.5 1112.5L2514 1128M2573.5 1112.5V1257.5M2514 1128V1117.5M2514 1128V1266.5M2514 1117.5V1112.5M2514 1112.5V994.5L2529 990.971M2514 1112.5L2529 1109V1104M2529 990.971L2558.5 984.029M2529 990.971V1048.5M2563 982.971L2558.5 984.029M2558.5 984.029V1042.5L2529 1048.5M2529 1104L2558.5 1097V1050L2529 1056.5M2529 1104V1056.5M2529 1056.5V1048.5M2595 1107.36L2654.5 1094V1084M2595 1107.36L2594.5 1097M2595 1107.36L2594.5 1246.36M2654.5 1084L2594.5 1097M2654.5 1084L2642 1080.5V965.85M2654.5 1084L2653 963.5L2642 965.85M2594.5 1097V1092.5M2642 965.85L2637 966.919M2637 966.919L2610 972.688M2637 966.919V1024L2610 1030M2610 972.688L2594.5 976V1092.5M2610 972.688V972M2610 972.688V1030M2610 1030V1037.5M2610 1037.5L2638 1031V1077L2610 1084M2610 1037.5V1084M2610 1084V1089.5L2594.5 1092.5M2266 1327.5V1334.5L2329 1317.15M2266 1327.5L2282.5 1322.5V1317.5M2266 1484.5V1365.5L2282.5 1361.05M2266 1484.5V1490.5M2266 1484.5L2282.5 1480.5V1473.5M2266 1490.5L2330 1474.5M2266 1490.5V1501M2266 1642.23V1647.5L2330 1629.33M2266 1642.23V1501M2266 1642.23L2282.5 1637.5V1631.5M2330 1629.33L2317 1624.5V1504.5M2330 1629.33V1500.97M2330 1484.5V1474.5M2330 1484.5L2266 1501M2330 1484.5V1500.97M2330 1474.5L2329 1348.5L2318.5 1351.33M2330 1474.5L2318.5 1469V1351.33M2329 1317.15L2318.5 1313.5V1192.5L2314 1193.69M2282.5 1262.25V1202L2314 1193.69M2282.5 1262.25L2314 1254V1193.69M2282.5 1262.25V1269M2282.5 1269L2314 1261V1310L2282.5 1317.5M2282.5 1269V1317.5M2282.5 1361.05V1419M2282.5 1361.05L2314 1352.55M2318.5 1351.33L2314 1352.55M2282.5 1473.5L2314 1465.5V1417.5L2282.5 1425.5M2282.5 1473.5V1425.5M2282.5 1425.5V1419M2282.5 1419L2314 1410.5V1352.55M2411.5 1451.5V1327.5L2400.5 1330.05M2411.5 1451.5V1461M2411.5 1451.5L2400.5 1448.5V1330.05M2411.5 1451.5L2350.5 1469M2411.5 1461L2350.5 1478.5M2411.5 1461V1478.82M2350.5 1478.5V1469M2350.5 1478.5V1495.4M2350.5 1463V1343.5L2366 1339.33M2350.5 1463L2366 1458.5V1454.5M2350.5 1463V1469M2366 1405V1398.5M2366 1405L2396.5 1396.5L2395.5 1445.5L2366 1454.5M2366 1405V1454.5M2366 1398.5V1339.33M2366 1398.5L2395.5 1390.5V1331.4M2366 1339.33L2395.5 1331.4M2395.5 1331.4L2400.5 1330.05M2350.5 1618.5V1624.5L2411.5 1606.5M2350.5 1618.5L2366 1614L2366.02 1609M2350.5 1618.5V1495.4M2411.5 1606.5L2400.5 1603V1482L2391.8 1484.18M2411.5 1606.5V1478.82M2391.8 1484.18L2366.5 1490.5L2366.5 1491.05M2391.8 1484.18L2411.5 1478.82M2391.8 1484.18L2366.5 1491.05M2366.02 1609L2398 1599V1551L2366.22 1560M2366.02 1609L2366.22 1560M2366.22 1560L2366.25 1553.5M2366.25 1553.5L2397 1545.5V1486.5L2366.49 1494M2366.25 1553.5L2366.49 1494M2366.5 1491.05L2366.49 1494M2366.5 1491.05L2350.5 1495.4M2433 1596.12V1603L2494 1584.45M2433 1596.12L2448.5 1591.44V1586.5M2433 1596.12V1472.98M2494 1584.45L2482 1579V1461L2448.5 1468.77M2494 1584.45V1430.87M2494 1430.87V1307.37L2482 1310.35M2494 1430.87L2482 1426V1310.35M2482 1310.35L2477 1311.59M2433 1441.5V1322.5L2447.5 1318.9M2433 1441.5L2447.5 1436.5V1432M2433 1441.5V1472.98M2447.5 1384.5V1377M2447.5 1384.5L2477 1375.5V1423L2447.5 1432M2447.5 1384.5V1432M2447.5 1377V1318.9M2447.5 1377L2477 1369V1311.59M2447.5 1318.9L2477 1311.59M2573.5 1408.5V1287L2563 1289.74M2573.5 1408.5V1418.5M2573.5 1408.5L2563 1405V1289.74M2573.5 1418.5L2514 1435M2573.5 1418.5V1562.3M2514 1435V1573M2514 1435V1418.5M2514 1418.5V1302.5L2529.5 1298.46M2514 1418.5L2529.5 1415V1410.5M2529.5 1298.46L2558 1291.04M2529.5 1298.46V1355.5M2529.5 1410.5L2560 1402.5V1355.5L2529.5 1362.5M2529.5 1410.5V1362.5M2529.5 1362.5V1355.5M2558 1291.04V1348.5L2529.5 1355.5M2558 1291.04L2563 1289.74M2514 1573V1579L2573.5 1562.3M2514 1573L2529.5 1568.5V1562.5M2573.5 1562.3L2563 1558V1439.5L2529.5 1448.5V1451.5M2529.5 1509L2558 1501.5V1444L2529.5 1451.5M2529.5 1509V1451.5M2529.5 1509V1514M2529.5 1514L2558 1507V1555.5L2529.5 1562.5M2529.5 1514V1562.5M2448.5 1586.5L2478.5 1577V1528.5L2448.5 1538M2448.5 1586.5V1538M2448.5 1538V1531M2448.5 1531L2477 1523V1465.5L2448.5 1473M2448.5 1531V1473M2448.5 1473V1468.77M2448.5 1468.77L2433 1472.98M2317 1504.5L2282.5 1514V1517.5M2317 1504.5L2330 1500.97M2282.5 1517.5L2312.5 1509.5V1568.5L2282.5 1575.5M2282.5 1517.5V1575.5M2282.5 1575.5V1582.5M2282.5 1582.5L2312 1574.5L2312.5 1623.5L2282.5 1631.5M2282.5 1582.5V1631.5M2594 1551V1558L2653.5 1541.34M2594 1551L2610 1546V1540.5M2594 1551V1413M2653.5 1541.34L2642.5 1535.5V1418.5L2610 1426V1430M2653.5 1541.34V1397.5M2610 1487V1494.5M2610 1487L2637.5 1479V1423L2610 1430M2610 1487V1430M2610 1494.5V1540.5M2610 1494.5L2639.5 1486V1532.5L2610 1540.5M2594 1413L2653.5 1397.5M2594 1413V1404.5M2653.5 1397.5V1388M2653.5 1388V1266.5L2642.5 1269.46M2653.5 1388L2594 1404.5M2653.5 1388L2642.5 1384.5V1269.46M2594 1404.5V1399M2642.5 1269.46L2637.5 1270.8M2637.5 1270.8V1327L2610 1334M2637.5 1270.8L2610 1278.2M2610 1334V1341.5M2610 1334V1278.2M2610 1341.5L2637.5 1334V1382L2610 1388M2610 1341.5V1388M2610 1388V1394.5L2594 1399M2594 1399V1282.5L2610 1278.2M2349.5 1307.37V1313.5L2412.5 1297M2349.5 1307.37L2366 1302.5V1298.46M2412.5 1297L2400.6 1293V1173L2366 1180.5V1184M2366 1298.46L2397.5 1290.5V1242L2366 1249.5M2366 1298.46V1249.5M2366 1249.5V1242M2366 1242L2395.5 1235.5V1178L2366 1184M2366 1242V1184M2433 1287V1293L2494 1276M2433 1287L2447.5 1282.5V1278.2M2494 1276L2482 1272.5V1152.5L2447.5 1160.5V1164.5M2447.5 1230.5L2479.5 1221.5V1269.46L2447.5 1278.2M2447.5 1230.5V1278.2M2447.5 1230.5V1223M2447.5 1223L2477 1215V1158L2447.5 1164.5M2447.5 1223V1164.5M2514 1266.5V1272.5L2573.5 1257.5M2514 1266.5L2529 1262.5V1256.77M2573.5 1257.5L2563 1254V1133.5L2529 1141V1145M2529 1256.77L2559.5 1248.5V1203L2529 1209.5M2529 1256.77V1209.5M2529 1209.5V1203M2529 1203L2558.5 1197V1138L2529 1145M2529 1203V1145M2594.5 1246.36V1251.5L2653.5 1237L2642.5 1231.5L2642 1114L2610 1122V1125.5M2594.5 1246.36L2610 1242V1237M2610 1184V1189.5M2610 1184L2637.5 1177V1119L2610 1125.5M2610 1184V1125.5M2610 1189.5V1237M2610 1189.5L2639.5 1182.5V1229.5L2610 1237M424 745V755M424 745V625.5L436.5 627.511M424 745L485 755M424 745L436.5 741V627.511M424 755V894M424 755L485 766M424 894L485 907.5V902.5M424 894L436.5 892V775L440 775.711M485 766V755M485 766V902.5M485 755V753M436.5 627.511L440 628.075M440 628.075V685L468.5 690M440 628.075L468.5 632.661M468.5 690V697.5M468.5 690V632.661M468.5 697.5L440 691.5V738L468.5 743.5M468.5 697.5V743.5M468.5 743.5V750L485 753M468.5 632.661L485 635.316V753M506.5 759.5V640.5L523.5 643.603M506.5 759.5V770M506.5 759.5L569.5 771.5M506.5 759.5L520 757V643M506.5 770L569.5 783.5M506.5 770V911.5M569.5 783.5V771.5M569.5 783.5V919.5M569.5 771.5V768M569.5 768V652L552 648.806M569.5 768L552 764.5V759.5M552 648.806L523.5 643.603M552 648.806V706M523.5 643.603V701L552 706M552 706V712M552 712L523.5 707.5V755L552 759.5M552 712V759.5M506.5 911.5L569.5 923V919.5M506.5 911.5L520 907.5V790.5L523.5 791.156M569.5 919.5L552 916.5V909.5M523.5 791.156L552 796.5V857.5M523.5 791.156V852L552 857.5M552 857.5V863M552 863L523.5 857.5V905L552 909.5M552 863V909.5M440 775.711L468.5 781.5V842.055M440 775.711V836.555L468.5 842.055M468.5 842.055V846M468.5 846L440 840.5V887.5L468.5 892.5M468.5 846V892.5M468.5 892.5V900L485 902.5M424 1193.5L485 1208V1204M424 1193.5V1054.5M424 1193.5L436.5 1189.5V1075L440.5 1075.81M436.5 927.857L424 925.5V1043.5M436.5 927.857V1040L424 1043.5M436.5 927.857L440 928.516M424 1043.5V1054.5M424 1043.5L485 1056M424 1054.5L485 1067.5M485 1067.5V1056M485 1067.5V1204M485 1056V1053M485 1053V937L468.5 933.889M485 1053L468.5 1048.5V1042.5M468.5 933.889L440 928.516M468.5 933.889V990M440 928.516V984L468.5 990M468.5 990V996M468.5 996L440 990V1037L468.5 1042.5M468.5 996V1042.5M485 1204L468.5 1200V1193.5M440.5 1075.81L468.5 1081.5V1140.75M440.5 1075.81V1134L468.5 1140.75M468.5 1140.75V1147.5M468.5 1147.5L439 1140.75V1187L468.5 1193.5M468.5 1147.5V1193.5M424 1342V1224L436.5 1226.97M424 1342L485 1357.5M424 1342L436.5 1339V1226.97M424 1342V1493.5M424 1493.5L485 1509V1504.5M424 1493.5L436.5 1488V1374.5L440.5 1375.44M485 1504.5L468.5 1500V1493.5M485 1504.5V1357.5M468.5 1441V1382L440.5 1375.44M468.5 1441V1447M468.5 1441L440.5 1435.75V1375.44M468.5 1447L440.5 1441.75V1486L468.5 1493.5M468.5 1447V1493.5M468.5 1234.58L485 1238.5V1354M468.5 1234.58L440.5 1227.92M468.5 1234.58V1292.29M485 1354L468.5 1350V1342M485 1354V1357.5M436.5 1226.97L440.5 1227.92M440.5 1227.92V1284.5L468.5 1292.29M468.5 1292.29V1297.5M468.5 1297.5L440.5 1289.5V1336L468.5 1342M468.5 1297.5V1342M506.5 1212L569.5 1226.97V1222M506.5 1212V1071M506.5 1212L520 1208V1092.5L523.5 1093.21M506.5 1514.5L569.5 1530V1524.5M506.5 1514.5V1373M506.5 1514.5L519 1509V1393.5L524 1394.69M506.5 1061V942L520 944.786M506.5 1061L569.5 1075M506.5 1061V1071M506.5 1061L520 1057.5V944.786M569.5 1075V1085.5M569.5 1075V1071M506.5 1071L569.5 1085.5M569.5 1085.5V1222M569.5 1071V955L552 951.389M569.5 1071L552 1067.5V1061M552 951.389L523.5 945.508M552 951.389V1008M520 944.786L523.5 945.508M523.5 945.508V1002L552 1008M552 1008V1014.5M552 1014.5L523.5 1008V1056L552 1061M552 1014.5V1061M569.5 1222L552 1218V1212M523.5 1093.21L552 1099V1158.5M523.5 1093.21V1153L552 1158.5M552 1158.5V1164.5M552 1164.5L523.5 1158.5V1205.5L552 1212M552 1164.5V1212M552.5 1254.36L569.5 1258V1373M552.5 1254.36L524 1248.25M552.5 1254.36V1310.5M569.5 1373L552.5 1369V1363M569.5 1373V1378.5M569.5 1378.5L506.5 1363M569.5 1378.5V1389M506.5 1363V1244.5L519 1247.18M506.5 1363V1373M506.5 1363L519 1357.5V1247.18M569.5 1389L506.5 1373M569.5 1389V1524.5M519 1247.18L524 1248.25M524 1248.25V1304L552.5 1310.5M552.5 1310.5V1316M552.5 1363L522 1356V1308.5L552.5 1316M552.5 1363V1316M552.5 1514.5L522 1506V1460.5L552.5 1467M552.5 1514.5V1467M552.5 1514.5V1520.5L569.5 1524.5M524 1394.69L552.5 1401.5V1460.5M524 1394.69V1454L552.5 1460.5M552.5 1460.5V1467M590.5 1684.5L569.5 1679.5V1676M590.5 1684.5V1564.5L597.5 1566.3M590.5 1684.5L597.5 1683M677 1707L654.5 1702V1694.5M677 1707V1588.5L683 1589.9M677 1707L683 1705.5M763 1729L741.5 1724V1718M763 1729L786.5 1724V1720M872.5 1581L786.5 1603.5V1720M872.5 1581L880 1579M872.5 1581V1698M880 1579V1699.5M880 1579L891 1581M880 1699.5L872.5 1698M880 1699.5L891 1697M872.5 1698L786.5 1720M741.5 1718L714.5 1710M741.5 1718V1713.5M714.5 1710L708.5 1711.5M714.5 1710V1597.22M708.5 1711.5L683 1705.5M708.5 1711.5V1595.83M683 1705.5V1589.9M683 1589.9L708.5 1595.83M708.5 1595.83L714.5 1597.22M891 1581V1697M891 1581L946 1595.83V1710M891 1697L946 1710M714.5 1597.22L718.5 1598.15M506.5 1664V1545.5L519 1548.48M506.5 1664L519 1660.5M519 1660.5L552 1669M519 1660.5V1548.48M552 1669V1672L569.5 1676M552 1669V1665.5M552 1556.33L569.5 1560.5V1676M552 1556.33L524 1549.67M552 1556.33V1611.5M622.5 1688.5L597.5 1683M622.5 1688.5V1572.75M622.5 1688.5L628 1687M597.5 1683V1566.3M597.5 1566.3L622.5 1572.75M622.5 1572.75L628 1574.17M628 1687V1574.17M628 1687L654.5 1694.5M628 1574.17L631.5 1575.07M519 1548.48L524 1549.67M524 1549.67V1604.5L552 1611.5M552 1611.5V1618M552 1618L522 1610V1657.5L552 1665.5M552 1618V1665.5M654.5 1694.5V1691.5M654.5 1691.5L631.5 1684.5V1638.5L654.5 1644.5M654.5 1691.5V1644.5M654.5 1644.5V1638.5M654.5 1638.5V1581L631.5 1575.07M654.5 1638.5L631.5 1632V1575.07M718.5 1598.15L741.5 1603.5V1665.5M718.5 1598.15V1653.5L741 1659.5M741.5 1665.5L718.5 1659.5V1707L741.5 1713.5M741.5 1665.5V1713.5M590.5 1534.5L654.5 1549.67V1540M590.5 1534.5V1392.5M590.5 1534.5L597.5 1531.5M677 1556.33L741 1570V1560.5M677 1556.33V1413.5M677 1556.33L683 1553.5M709 1288.5V1405M709 1288.5L683 1283.22M709 1288.5L713.5 1289.41M709 1405L683 1399V1283.22M709 1405L713.5 1403.5V1289.41M683 1283.22L677 1282V1403.5M628 1270.2V1383.5L622.5 1385.5M628 1270.2L622.5 1269M628 1270.2L633 1271.3M622.5 1385.5L597 1380M622.5 1385.5V1269M597 1380V1263.42M597 1380L590.5 1382M597 1263.42L590.5 1262V1382M597 1263.42L622.5 1269M713.5 1289.41L718.5 1290.43M718.5 1290.43L741 1295V1352.5M718.5 1290.43V1348L741 1352.5M741 1352.5V1359.5M741 1407.5L716 1401.5V1354L741 1359.5M741 1407.5V1359.5M741 1407.5V1418M654.5 1339.5L630.5 1334.5V1382L654.5 1387.5M654.5 1339.5V1387.5M654.5 1339.5V1333M654.5 1387.5V1397.5M633 1271.3L654.5 1276V1333M633 1271.3V1328.5L654.5 1333M590.5 1382L654.5 1397.5M590.5 1382V1392.5M654.5 1397.5V1407.5M590.5 1392.5L597.5 1394.14M654.5 1407.5L597.5 1394.14M654.5 1407.5V1425.5M677 1403.5L741 1418M677 1403.5V1413.5M741 1418V1427.5M677 1413.5L683 1414.81M741 1427.5L683 1414.81M741 1427.5V1445.5M622.5 1537.5V1418L628 1419.29M622.5 1537.5L597.5 1531.5M622.5 1537.5L628 1536V1419.29M597.5 1531.5V1394.14M628 1419.29L631.5 1420.11M654.5 1425.5V1485.5M654.5 1425.5L631.5 1420.11M654.5 1485.5L631.5 1480V1420.11M654.5 1485.5V1492M654.5 1540L630.5 1534.5V1485.5L654.5 1492M654.5 1540V1492M683 1414.81V1553.5M683 1553.5L709 1558.5M741 1445.5L718.5 1440.23M741 1445.5V1506M709 1558.5V1438L714.5 1439.29M709 1558.5L714.5 1556.33V1439.29M714.5 1439.29L718.5 1440.23M718.5 1440.23V1501.5L741 1506M741 1506V1513M741 1513L716 1507.5V1553.5L741 1560.5M741 1513V1560.5M786.5 1567.5V1295L872.5 1276M786.5 1567.5V1572.75L880 1548.48M786.5 1567.5L872.5 1545.5M872.5 1276L879.5 1274.5M872.5 1276V1545.5M879.5 1274.5L887 1276.3M879.5 1274.5L880 1548.48M880 1548.48L946 1564.5V1560.5M880 1548.48L872.5 1545.5M880 1548.48L887 1545.5M887 1545.5V1276.3M887 1545.5L946 1560.5M887 1276.3L946 1290.43V1560.5M623.5 661V778.5M623.5 661L628.5 662M623.5 661L598.5 657.212M623.5 778.5L598.5 773M623.5 778.5L628.5 777.5V662M598.5 773L590.5 776M598.5 773V657.212M590.5 776V656L598.5 657.212M590.5 776L655 788M590.5 776V787L655 798.5V788M655 788V780M628.5 662L632.5 662.679M655 780L631.5 775V728L655 731.5M655 780V731.5M655 731.5V723.5M655 723.5V666.5L632.5 662.679M655 723.5L632.5 720.5V662.679M879.5 1242L786.5 1263.42V1258M879.5 1242V970M879.5 1242L872.5 1238.5M879.5 1242L946 1263.42V1258M879.5 1242L885.5 1238.5M879.5 970L872.5 971.355M879.5 970L885.5 971.355M872.5 971.355L786.5 988V1258M872.5 971.355V1238.5M872.5 1238.5L786.5 1258M885.5 1238.5V971.355M885.5 1238.5L946 1258M885.5 971.355L946 983.5V1258M872.5 938.892L786.5 956L787 683.5L872.5 666.5M872.5 938.892L879.5 937.5M872.5 938.892V666.5M879.5 937.5V666.5M879.5 937.5L885.5 938.538M872.5 666.5H879.5M885.5 666.5L945 678.5L946 949L885.5 938.538M885.5 666.5H879.5M885.5 666.5V938.538M946 1710V1717L967.5 1721.5M936.5 1702L927.5 1699.5V1594.5L936.5 1597.5M936.5 1702V1597.5M936.5 1702L943 1704V1599.5L936.5 1597.5M967.5 1721.5V1601L972.5 1599M967.5 1721.5L972.5 1719.5M972.5 1569L967.5 1571V1436M709.25 676.25V794.5M709.25 676.25L715 677.186M709.25 676.25L684 672.14M709.25 794.5L684 789.5M709.25 794.5L715 793.5V677.186M684 789.5L677 791.5M684 789.5V672.14M677 791.5V671L684 672.14M677 791.5V803L741.5 815V804.5M677 791.5L741.5 804.5M715 677.186L719 677.837M741.5 796L719 791.5V743.5L741.5 748.5M741.5 796V748.5M741.5 796V804.5M741.5 748.5V741.5M741.5 741.5V681.5L719 677.837M741.5 741.5L719 736V677.837M709.25 982.25V1100.5M709.25 982.25L715 983.186M709.25 982.25L684 978.14M709.25 1100.5L684 1095.5M709.25 1100.5L715 1099.5V983.186M684 1095.5L677 1097.5M684 1095.5V978.14M677 1097.5V977L684 978.14M677 1097.5V1109L741.5 1121V1110.5M677 1097.5L741.5 1110.5M715 983.186L719 983.837M741.5 1102L719 1097.5V1049.5L741.5 1054.5M741.5 1102V1054.5M741.5 1102V1110.5M741.5 1054.5V1047.5M741.5 1047.5V987.5L719 983.837M741.5 1047.5L719 1042V983.837M622.5 966.104V1081.07M622.5 966.104L628.295 967.014M622.5 966.104L597.054 962.108M622.5 1081.07L597.054 1076.21M622.5 1081.07L628.295 1080.1V967.014M597.054 1076.21L590 1078.15M597.054 1076.21V962.108M590 1078.15V961L597.054 962.108M590 1078.15V1089.33L655 1101V1090.79M590 1078.15L655 1090.79M628.295 967.014L632.326 967.647M655 1082.53L632.326 1078.15V1031.49L655 1036.35M655 1082.53V1036.35M655 1082.53V1090.79M655 1036.35V1029.54M655 1029.54V971.208L632.326 967.647M655 1029.54L632.326 1024.19V967.647M709 826.396V947.931M709 826.396L714.705 827.358M709 826.396L683.946 822.171M709 947.931L683.946 942.792M709 947.931L714.705 946.903V827.358M683.946 942.792L677 944.847M683.946 942.792V822.171M677 944.847V821L683.946 822.171M677 944.847L741 958.208V949.472M714.705 827.358L718.674 828.027M741 949.472L718.674 944.847V895.514L741 900.653M741 949.472V900.653M741 900.653V893.458M741 893.458V831.792L718.674 828.027M741 893.458L718.674 887.806V828.027M709 1133.4V1254.93M709 1133.4L714.705 1134.36M709 1133.4L683.946 1129.17M709 1254.93L683.946 1249.79M709 1254.93L714.705 1253.9V1134.36M683.946 1249.79L677 1251.85M683.946 1249.79V1129.17M677 1251.85V1128L683.946 1129.17M677 1251.85L741 1265.21V1256.47M714.705 1134.36L718.674 1135.03M741 1256.47L718.674 1251.85V1202.51L741 1207.65M741 1256.47V1207.65M741 1207.65V1200.46M741 1200.46V1138.79L718.674 1135.03M741 1200.46L718.674 1194.81V1135.03M623.5 811.309V930.888M623.5 811.309L629.116 812.256M623.5 811.309L598.837 807.152M623.5 930.888L598.837 925.831M623.5 930.888L629.116 929.876V812.256M598.837 925.831L592 927.854M598.837 925.831V807.152M592 927.854V806L598.837 807.152M592 927.854L655 941V932.405M629.116 812.256L633.023 812.914M655 932.405L633.023 927.854V879.315L655 884.371M655 932.405V884.371M655 884.371V877.292M655 877.292V816.618L633.023 812.914M655 877.292L633.023 871.73V812.914M623.5 1115.31V1234.89M623.5 1115.31L629.116 1116.26M623.5 1115.31L598.837 1111.15M623.5 1234.89L598.837 1229.83M623.5 1234.89L629.116 1233.88V1116.26M598.837 1229.83L592 1231.85M598.837 1229.83V1111.15M592 1231.85V1110L598.837 1111.15M592 1231.85L655 1245V1236.4M629.116 1116.26L633.023 1116.91M655 1236.4L633.023 1231.85V1183.31L655 1188.37M655 1236.4V1188.37M655 1188.37V1181.29M655 1181.29V1120.62L633.023 1116.91M655 1181.29L633.023 1175.73V1116.91M898.5 1586.5V1693L920.5 1698V1592.5L898.5 1586.5Z" stroke="black"/>
<path d="M930.5 1235.5L898 1227V1199.5C902 1194.5 912.2 1187.5 921 1199.5V1224.5L935 1228V1234L930.5 1235.5ZM930.5 1235.5V1230L918 1227V1205M910.828 1201.38C908.11 1198.98 904.405 1200.85 902.5 1202.5V1222L907 1223.07M910.828 1201.38C911.677 1202.12 912.429 1203.29 913 1205V1224.5L907 1223.07M910.828 1201.38C909.552 1201.25 907 1201.6 907 1204V1223.07M930.5 1176L898 1151V1145L931 1133M930.5 1176V1170L921 1162.5V1142L926 1140.5M930.5 1176H936V1170M931 1139V1133M931 1139H936V1133H931M931 1139L926 1140.5M931 1170H936M936 1170L926 1162.5V1140.5M931 1107L897.5 1100.5V1069.5C901.5 1064.5 911.4 1057.5 919 1069.5V1076.73M931 1107V1101.5M931 1107L935.5 1106.5V1099.5M931 1101.5L935.5 1099.5M931 1101.5L917 1098.5V1084.5L932.5 1073M935.5 1099.5L922.5 1097V1084.5L936 1073M936 1073H932.5M936 1073V1066.5H932.5M932.5 1073V1066.5M932.5 1066.5L919 1076.73M919 1076.73L916 1079C916.5 1074.67 915.8 1066.6 909 1069M910 1072.04C911.314 1073.49 912.133 1075.74 912.5 1077.5L912.051 1095M910 1072.04C908.329 1070.2 905.859 1069.64 902.5 1073V1095L912 1097L912.051 1095M910 1072.04C908.667 1072.51 906.2 1074.11 907 1076.73V1093.5L912.051 1095M931 1039.5L899 1032.5V1026L913.5 1029L899 1003L897.5 993H902.5L913.5 1014L931 1000M931 1039.5V1032.5L920 1031L916 1021.5L931 1007M931 1039.5H936L935.5 1031L924.5 1029L920 1021.5L936 1007M931 1007V1000M931 1007H936M931 1000H936V1007M931.5 904.5L898 917V909.5L926.5 899.5L898 879.5V873M931.5 904.5V897.5L898 873M931.5 904.5L935.5 903V894.5L904 873H898M931.5 854.5L898 848V840.5L931.5 848M931.5 854.5V848M931.5 854.5H935.5V848H931.5M931.5 816L898 809V776H902.5M931.5 816V780.5M931.5 816L935.5 815V780.5H931.5M931.5 780.5H927.5V809L920 807.636M916.5 780.5V807L920 807.636M916.5 780.5H913V805.5L906.5 804.262M916.5 780.5H920V807.636M902.5 776V803.5L906.5 804.262M902.5 776H906.5V804.262M931.5 744.5L898 751V744.5L925 739L898 722.5V713.5L925 706L898 691.5V684.5M931.5 744.5V735.5L902.5 718.5L908 716.983M931.5 744.5L936 743V734.5L908 716.983M931.5 710.5V704L898 684.5M931.5 710.5H935.5V701.5L904 684.5H898M931.5 710.5L908 716.983M1057 787V665L1046.5 666.789M1057 787V796.5M1057 787L989.5 800M1057 796.5L989.5 808.5M1057 796.5V939.5M989.5 808.5V800M989.5 808.5V948.5M989.5 795V676.5L1010.5 672.922M989.5 795L1010.5 791V787M989.5 795V800M1010.5 672.922L1037.5 668.322M1010.5 672.922V731.961M1046.5 666.789V782M1046.5 666.789L1037.5 668.322M1037.5 668.322V726.5L1010.5 731.961M1010.5 731.961V740M1010.5 740L1037.5 734V782L1010.5 787M1010.5 740V787M989.5 948.5V953.5L1057 939.5M989.5 948.5L1010.5 944.5V939.5M1057 939.5L1046.5 935.5V817L1042.5 817.722M1010.5 939.5L1042.5 932V885L1010.5 891.5M1010.5 939.5V891.5M1010.5 891.5V885M1010.5 885V823.5L1042.5 817.722M1010.5 885L1042.5 879V817.722M1234.5 903L1168 916.5V912.5M1234.5 903V762.5M1234.5 903L1223 900V784L1218 784.845M1321.11 885L1256 900V895M1321.11 885V746.132M1321.11 885L1310 881.5V768.5L1304.5 769.275M1407 601.5V868M1407 601.5L1419.5 603.85M1407 601.5L1395.06 603.85M1407 868L1343.5 881.5V759M1407 868L1473.5 881.5V759M1407 868L1395.06 865V749.625M1407 868L1418.5 865V749.598M1494.5 885L1563.5 896V888M1494.5 885V746.5M1494.5 885L1502.5 881.5M1767 937.5L1838 948.5V944M1767 937.5V794.5M1767 937.5L1780 933V815L1784.5 815.791M1861 953.5L1930.5 965.5V961.5M1861 953.5V811.5M1861 953.5L1872.5 948.5V832L1878 832.571M1956 970L2027 983V979.5M1956 970V829M1956 970L1967 966.5V848L1970.5 848.455M2027 1150L1956 1134.5M2027 1150V1138M2027 1150V1289.5M1956 1134.5V1278.5M1956 1134.5V1124.5M1956 1278.5L2027 1294V1289.5M1956 1278.5L1966.5 1275V1155.5L1970.5 1156.27M1930.5 1131L1861 1116.5M1930.5 1131V1262.5M1930.5 1131V1119.5M1861 1116.5V1189.5M1861 1116.5V1106M1494.5 1183L1473.5 1177.5V1057.5M1494.5 1183V1045M1494.5 1183L1502.5 1180M1382 1048.91V1160L1363 1163.5L1343.5 1150.5V1137.5M1382 1048.91L1395.06 1045.99M1382 1048.91L1343.5 1057.5M1057 1244L989.5 1259V1253M1057 1244L1045 1238.5L1046.5 1121L1010 1129L1009.94 1134M1057 1244V1101.5M1147 1223L1079.5 1238.5V1234.5M1147 1223L1134.5 1220.5V1102.5L1099.5 1110V1114M1147 1223V1081.5M989.5 1412V1289.5L1001 1286.86M1057 1314.5V1274L1043.5 1277.1M1043.5 1277.1V1325.5M1043.5 1277.1L1031.5 1279.86M1031.5 1279.86V1309.5M1031.5 1279.86L1001 1286.86M1031.5 1309.5L1010 1314.5M1031.5 1309.5V1332.5M1010 1314.5V1286.5M1010 1314.5V1402.5M1031.5 1350V1392M1001 1286.86V1407M989.5 1253L1001 1250L1008.5 1251L1008.59 1244M989.5 1253V1116M1079.5 1234.5L1090.5 1231L1099.5 1229.5V1176.5M1079.5 1234.5V1097M1099.5 1176.5L1131 1169.5V1217L1100.5 1224M1099.5 1176.5V1169.5M1099.5 1169.5L1129.5 1163.5V1107.5L1099.5 1114M1099.5 1169.5V1114M1009.94 1134L1040.5 1126V1182.5L1009.25 1190M1009.94 1134L1009.25 1190M1009.25 1190L1009.16 1197M1009.16 1197L1040.5 1188.5V1236L1008.59 1244M1009.16 1197L1008.59 1244M989.5 1101.5V983L1009.94 979.366M989.5 1101.5L1009.94 1097L1010 1091.5M989.5 1101.5V1105.5M1010 1091.5L1040.5 1084V1038L1009.97 1044.99M1010 1091.5L1009.97 1044.99M1009.97 1044.99L1009.94 1045L1009.97 1041.14M1009.97 1044.99L1009.97 1041.14M1009.97 1041.14L1010 1038L1040.5 1030V973.933M1009.97 1041.14L1009.94 979.366M1040.5 973.933L1048.75 972.467M1040.5 973.933L1009.94 979.366M1048.75 972.467L1057 971V1090M1048.75 972.467L1046.5 1087.5L1057 1090M1057 1090L989.5 1105.5M1057 1090V1101.5M989.5 1105.5V1116M989.5 1116L1057 1101.5M1147 1072V951L1134.5 953.407M1147 1072L1079.5 1087.5M1147 1072V1081.5M1147 1072L1134.5 1068.5V953.407M1079.5 1087.5V1097M1079.5 1087.5V1081.5M1079.5 1097L1147 1081.5M1079.5 1081.5V964L1099.5 960.148M1079.5 1081.5L1099.5 1077V1072M1099.5 960.148V1018.57M1099.5 960.148L1129.5 954.37M1099.5 1018.57L1129.5 1012.5V954.37M1099.5 1018.57V1025.5M1129.5 954.37L1134.5 953.407M1099.5 1025.5L1129.5 1020V1065L1099.5 1072M1099.5 1025.5V1072M1147 769.5V650L1135.5 652.004M1147 769.5L1081 782M1147 769.5V780.5M1147 769.5L1135.5 765.5V652.004M1081 782V793M1081 782V777M1081 793V935.5L1147 921V780.5M1081 793L1147 780.5M1234.5 762.5L1168 775.5M1234.5 762.5V753.5M1168 775.5V765.5M1168 775.5V912.5M1168 765.5L1234.5 753.5M1168 765.5V760.5M1234.5 753.5V633L1222.5 634.985M1234.5 753.5L1222.5 749V634.985M1321.11 736.5V616.5L1310 618.797M1321.11 736.5L1256 749M1321.11 736.5V746.132M1321.11 736.5L1308.5 732.5L1310 618.797M1256 749V759M1256 749V744.5M1256 759L1321.11 746.132M1256 759V895M1343.5 730L1398.5 719M1343.5 730V759M1343.5 730V724.5M1398.5 719V749L1395.06 749.625M1398.5 719L1395.06 717V603.85M1343.5 759L1395.06 749.625M1415 719V749L1418.5 749.598M1415 719L1473.5 730M1415 719L1419.5 717V603.85M1473.5 759V730M1473.5 759L1418.5 749.598M1473.5 730V724.5M1419.5 603.85L1422.71 604.453M1395.06 603.85L1392 604.453M1099 658.364L1081 661.5V777M1099 658.364V716M1099 658.364L1131 652.788M1081 777L1099 773.5V768.5M1099 768.5L1131 762.5V716L1099 722.5M1099 768.5V722.5M1099 722.5V716M1099 716L1131 710V652.788M1131 652.788L1135.5 652.004M1186.5 640.94L1168 644V760.5M1186.5 640.94L1217 635.895M1186.5 640.94V698.5M1168 760.5L1186.5 757V752M1186.5 752V706.5M1186.5 752L1219 746.132V700.5L1186.5 706.5M1222.5 634.985L1217 635.895M1217 635.895V694L1186.5 698.5M1186.5 698.5V706.5M1310 618.797L1306 619.516M1275.5 624.996L1256 628.5V744.5M1275.5 624.996L1306 619.516M1275.5 624.996V682.998M1256 744.5L1275.5 741V735.5M1343.5 724.5V614L1392 604.453M1343.5 724.5L1392 715V604.453M1306 619.516V677.5L1275.5 682.998M1275.5 682.998V690M1275.5 690L1306 684.5V730L1275.5 735.5M1275.5 690V735.5M1473.5 724.5V614L1422.71 604.453M1473.5 724.5L1422.5 714L1422.71 604.453M1407 900L1395.06 902.068M1407 900L1418.5 901.902M1407 900V1165M1395.06 902.068L1343.5 911V1021.5M1395.06 902.068V1009.5M1399.5 1014.5L1395.06 1012.5V1009.5M1399.5 1014.5V1045L1395.06 1045.99M1399.5 1014.5L1343.5 1027.5M1343.5 1027.5V1057.5M1343.5 1027.5V1021.5M1343.5 1057.5V1137.5M1343.5 1021.5L1395.06 1009.5M1473.5 1057.5V1027.5M1473.5 1057.5L1418.5 1045.85M1473.5 1027.5L1414.5 1014.5V1045L1418.5 1045.85M1473.5 1027.5V1020M1418.5 901.902L1473.5 911V1020M1418.5 901.902V1012.5L1422 1009.5L1473.5 1020M1395.06 1045.99V1161.5L1407 1165M1407 1165L1418.5 1161.5V1045.85M1502.5 917.775L1494.5 916.5V1034.5M1502.5 917.775V1031.5M1502.5 917.775L1535.5 923.036M1502.5 1031.5L1494.5 1034.5M1502.5 1031.5L1530 1037L1535.5 1033M1494.5 1034.5L1563.5 1048.91M1494.5 1034.5V1045M1563.5 1048.91V1060M1563.5 1048.91V1039.5M1563.5 1060V1077M1563.5 1060L1502.5 1046.74M1494.5 1045L1502.5 1046.74M1563.5 1077V1136.5M1563.5 1077L1535.5 1069.9M1530 1187V1068.5L1535.5 1069.9M1530 1187L1502.5 1180M1530 1187L1535.5 1183M1502.5 1180V1046.74M1563.5 1136.5V1141.5M1563.5 1136.5L1535.5 1130V1069.9M1563.5 1141.5L1535.5 1135V1183M1563.5 1141.5V1188.5M1535.5 1183L1563.5 1188.5M1563.5 1188.5V1192.5M1585 1061.5V1187M1585 1061.5L1654 1075.5M1585 1061.5V1051.5M1654 1075.5V1065.5M1654 1075.5V1093.5M1654 1065.5L1585 1051.5M1654 1065.5V1057.5M1585 1051.5V933.5L1623.5 939.359M1585 1051.5L1591.5 1048.91L1616.5 1053.5L1623.5 1051.5M1676.5 1079.5V1166.5M1676.5 1079.5L1744.5 1093.5M1676.5 1079.5V1069.9M1744.5 1093.5V1177.5M1744.5 1093.5V1083.5M1744.5 1083.5L1676.5 1069.9M1744.5 1083.5V1079.5M1676.5 1069.9V948.5L1689 950.89M1676.5 1069.9L1689 1065.5V1061.5M1767 1098V1210.5M1767 1098L1838 1112M1767 1098V1087M1838 1112V1195M1838 1112V1101.5M1838 1101.5L1767 1087M1838 1101.5V1098M1767 1087V965.5L1780 968.063M1767 1087L1780 1083.5V968.063M1861 1106V983L1872.5 985.317M1861 1106L1930.5 1119.5M1861 1106L1872.5 1101.5V985.317M1930.5 1119.5V1115M1956 1124.5V1002L1966.5 1003.92M1956 1124.5L2027 1138M1956 1124.5L1966.5 1119.5V1003.92M2027 1138V1135.12M2027 1289.5L2005.5 1284.5V1278.5M1970.5 1156.27L2005.5 1163V1225M1970.5 1156.27V1217.5L2005.5 1225M2005.5 1225V1232M2005.5 1232L1969 1223V1271.5L2005.5 1278.5M2005.5 1232V1278.5M1911 1205V1144.5L1878 1138.21M1911 1205L1893 1202M1911 1205V1213M1911 1213V1229M1911 1213L1896.5 1210.5M1869 1136.5L1872.5 1137.17M1872.5 1137.17V1186.5M1872.5 1137.17L1878 1138.21M1878 1138.21V1185M1776.5 1118L1780 1118.69M1780 1118.69V1209M1780 1118.69L1784.09 1119.5M1784.09 1119.5L1817 1126V1186.5M1784.09 1119.5V1179.5L1817 1186.5M1817 1186.5V1193M1817 1193V1199.5M1817 1193L1784.09 1185V1207.5M1724.5 1155V1107.5L1692.5 1101.5M1684.5 1100L1689 1100.84M1689 1100.84V1164M1689 1100.84L1692.5 1101.5M1692.5 1101.5V1162.5M1654 1093.5L1626.5 1088.39M1654 1093.5V1153M1619 1180V1087L1623.5 1087.84M1623.5 1087.84V1177.5M1623.5 1087.84L1626.5 1088.39M1626.5 1088.39V1149L1654 1153M1654 1153V1159.5M1654 1159.5V1170.5M1654 1159.5L1626.5 1155V1177.5M1168 912.5L1187.5 908.5V902.068M1256 895L1274.5 891.5V885M1187.5 849.25V790L1218 784.845M1187.5 849.25L1218 844V784.845M1187.5 849.25V857M1187.5 857L1218 851V896.5L1187.5 902.068M1187.5 857V902.068M1274.5 832.5V773.5L1304.5 769.275M1274.5 832.5L1304.5 827V769.275M1274.5 832.5V839.5M1274.5 839.5L1304.5 834V879.5L1274.5 885M1274.5 839.5V885M1169 1078L1234.5 1063M1169 1078L1168.93 1068.5M1169 1078V1197L1188.5 1179V1167M1234.5 1063V1053.5M1234.5 1063V1155.43M1234.5 1053.5L1223 1048.91V935.5M1234.5 1053.5L1168.93 1068.5M1234.5 1053.5V933.5L1223 935.5M1168.93 1068.5L1168.89 1063M1168.89 1063L1168 947L1187.5 942.923M1168.89 1063L1187.5 1059.5V1052M1223 935.5L1218 936.545M1187.5 942.923L1218 936.545M1187.5 942.923V999M1218 936.545V994L1187.5 999M1187.5 999V1007M1187.5 1007L1218 1001.5V1045.99L1187.5 1052M1187.5 1007V1052M1188.5 1167L1197.5 1169.5L1343.5 1137.5M1188.5 1167V1155.43M1188.5 1167L1218 1160V1149L1188.5 1155.43M1343.5 1137.5L1332.5 1134L1321 1136.5M1321 1136.5V1045.85M1321 1136.5L1309.5 1139V1065L1304 1066.1M1321 1034.5L1255.5 1048.91M1321 1034.5V1045.85M1321 1034.5L1309 1032.5V918.826M1321 1034.5V916.5L1309 918.826M1255.5 1048.91L1255.6 1059.5M1255.5 1048.91L1255.54 1044.5M1223 1084.74L1226.5 1084M1223 1084.74V1158L1234.5 1155.43M1223 1084.74L1218 1085.79M1234.5 1155.43L1256.5 1150.5L1255.6 1059.5M1255.6 1059.5L1321 1045.85M1274.5 1130.5V1072L1304 1066.1M1274.5 1130.5L1304 1125V1066.1M1274.5 1130.5V1136.5M1274.5 1136.5V1146.5L1304 1140.5V1131.5L1274.5 1136.5ZM1188.5 1155.43V1149M1188.5 1149V1092L1218 1085.79M1188.5 1149L1218 1143.5V1085.79M1255.54 1044.5L1274.5 1041.5V1034.5M1255.54 1044.5L1256.5 929L1274.5 925.512M1274.5 1034.5V989M1274.5 1034.5L1304.5 1028.85V982.5L1274.5 989M1274.5 925.512V982.5M1274.5 925.512L1304.5 919.698M1274.5 982.5L1304.5 976V919.698M1274.5 982.5V989M1304.5 919.698L1309 918.826M1494.5 735.5V617L1502.5 618.333M1494.5 735.5L1502.5 732.5M1494.5 735.5L1563.5 746.5M1494.5 735.5V746.5M1502.5 732.5L1527.5 736.5M1502.5 732.5V618.333M1527.5 736.5V622.5M1527.5 736.5L1532.5 735.5M1527.5 622.5L1532.5 623.333M1527.5 622.5L1502.5 618.333M1532.5 623.333V735.5M1532.5 623.333L1536.5 624M1532.5 735.5L1536.5 736.081M1563.5 746.5V757.5M1563.5 746.5V740M1563.5 757.5V776M1563.5 757.5L1502.5 747.775M1494.5 746.5L1502.5 747.775M1563.5 740V692.5M1563.5 740L1536.5 736.081M1563.5 692.5L1536.5 687.5V736.081M1563.5 692.5V687.5M1563.5 687.5V628.5L1536.5 624M1563.5 687.5L1536.5 681.5V624M1628.5 639.935L1654 644V701M1628.5 639.935V696.5L1654 701M1628.5 639.935L1622.5 638.978M1654 701V708.5M1654 708.5L1625.5 702.5V749L1654 754.5M1654 708.5V754.5M1654 754.5V763.5M1654 763.5L1585 752M1654 763.5V774M1585 752V633L1622.5 638.978M1585 752L1592 749L1618.5 754.5L1622.5 752V638.978M1585 752V761.5M1563.5 776V836M1563.5 776L1536.5 770.838M1563.5 836L1536.5 832V770.838M1563.5 836V842M1536.5 770.838L1533 770.169M1529.5 885V769.5L1533 770.169M1529.5 885L1502.5 881.5M1529.5 885L1533 883.444M1502.5 881.5V747.775M1563.5 888V842M1563.5 888L1536.5 883.967M1533 770.169V883.444M1533 883.444L1536.5 883.967M1563.5 842L1536.5 837V883.967M1535.5 1033V923.036M1535.5 1033L1540 1034.04M1563.5 1039.5V993M1563.5 1039.5L1540 1034.04M1535.5 923.036L1540 923.754M1540 923.754L1563.5 927.5V985.5M1540 923.754V980.5L1563.5 985.5M1563.5 985.5V993M1563.5 993L1540 988V1034.04M1623.5 939.359V1051.5M1623.5 939.359L1628.5 940.12M1623.5 1051.5L1628.5 1052.48M1628.5 940.12L1654 944V1002M1628.5 940.12V998L1654 1002M1654 1002V1008M1654 1008L1628.5 1004V1052.48M1654 1008V1057.5M1628.5 1052.48L1654 1057.5M1689 950.89L1693.74 951.796M1689 950.89V1061.5M1693.74 951.796V1010L1724.5 1016M1693.74 951.796L1724.5 957.676M1724.5 1016V957.676M1724.5 1016V1022.5M1724.5 957.676L1744.5 961.5V1079.5M1744.5 1079.5L1724.5 1075.5V1068.5M1689 1061.5L1692.5 1062.19M1724.5 1068.5L1692.5 1062.19M1724.5 1068.5V1022.5M1692.5 1062.19V1016L1724.5 1022.5M1780 968.063L1784.09 968.871M1838 1098V979.5L1817 975.359M1838 1098L1817 1093.5V1087.84L1784.09 1081.5V1034L1817 1040.5M1817 975.359V1034M1817 975.359L1784.09 968.871M1817 1034L1784.09 1027V968.871M1817 1034V1040.5M1817 1087V1040.5M1911 993.072L1930.5 997V1115M1911 993.072L1878 986.424M1911 993.072V1051M1930.5 1115L1911 1112V1106M2005.5 1011.06L2027 1015V1135.12M2005.5 1011.06V1070.5M2005.5 1011.06L1970.5 1004.65M2027 1135.12L2005.5 1131V1124.5M1966.5 1003.92L1970.5 1004.65M1872.5 985.317L1878 986.424M1878 986.424V1045L1911 1051M1911 1051V1059M1911 1106L1875.5 1100V1052.5L1911 1059M1911 1106V1059M2005.5 1124.5L1970.5 1118V1070.5L2005.5 1077.5M2005.5 1124.5V1077.5M2005.5 1077.5V1070.5M2005.5 1070.5L1970.5 1063V1004.65M1585 900.5V903L1654 913.5V905M1585 900.5L1591 899L1618.5 903M1585 900.5V761.5M1618.5 903L1623.5 900.5V785.556M1618.5 903V784.5L1623.5 785.556M1654 905V858M1654 905L1627 901.016V853L1654 858M1676.5 916.5V919L1744.5 931V926.5M1676.5 916.5L1687.5 915M1676.5 916.5V779M1687.5 915L1690 912.5M1687.5 915V797L1692.5 798.014M1690 912.5L1724.5 918M1690 912.5V865L1724.5 873.5M1724.5 918V923.754L1744.5 926.5M1724.5 918V873.5M1744.5 926.5V779M1692.5 798.014L1724.5 804.5V865M1692.5 798.014V858L1724.5 865M1724.5 865V873.5M1623.5 785.556L1628.5 786.613M1654 792L1628.5 786.613M1654 792V851M1654 792V774M1628.5 786.613V847L1654 851M1654 851V858M1687.5 649.36L1676.5 647.5V766M1687.5 649.36V763.5L1676.5 766M1687.5 649.36L1692.5 650.206M1676.5 766L1744.5 779M1676.5 766V779M1744.5 779V776M1676.5 779L1743 789M1654 774L1585 761.5M1767 784.5V662.5L1779 664.359M1767 784.5L1838 794.5M1767 784.5V794.5M1767 784.5L1779 780.5V664.359M1838 794.5V808M1838 794.5V792M1838 808L1767 794.5M1838 808V944M1861 798.014V677.5L1872.5 679.568M1861 798.014L1930.5 811.5M1861 798.014V811.5M1861 798.014L1872.5 796V679.568M1930.5 811.5V823.5M1930.5 811.5V808M1930.5 823.5L1861 811.5M1930.5 823.5V961.5M1956 816.5V693.5L1966 695.12M1956 816.5L2027 829M1956 816.5V829M1956 816.5L1966 813.5V808M2027 829V842M2027 829V825M2027 842L1956 829M2027 842V979.5M1872.5 679.568L1877 680.378M1966 695.12V808M1966 695.12L1970.5 695.849M1779 664.359L1784.5 665.211M2027 979.5L2005.5 975.359V968.871M2005.5 701.518L2027 705V825M2005.5 701.518V761.5M2005.5 701.518L1970.5 695.849M2027 825L2005.5 821.5V816.5M1817 670.246L1838 673.5V792M1817 670.246L1784.5 665.211M1817 670.246V729.623M1838 792L1817 789V736M1911 686.493L1930.5 690V808M1911 686.493V745.496M1911 686.493L1877 680.378M1930.5 808L1911 804.5V800.5M1930.5 961.5L1911 957.676V951.796M1838 944L1817 940.12V936M2005.5 968.871V923.754M2005.5 968.871L1970.5 962.17V915.796L2005.5 923.754M2005.5 923.754V916.5M2005.5 916.5V853L1970.5 848.455M2005.5 916.5L1970.5 909V848.455M2005.5 816.5V766M2005.5 816.5L1970.5 808.968M1966 808L1970.5 808.968M2005.5 766L1970.5 761.5V808.968M2005.5 766V761.5M2005.5 761.5L1970.5 756.5V695.849M1911 745.496L1877 739.5V680.378M1911 745.496V752M1911 752L1875.5 745.496V794.5L1911 800.5M1911 752V800.5M1784.5 665.211V724L1817 729.623M1817 729.623V736M1817 736L1783 729.623V777.5L1816.5 783.5M1692.5 650.206V706L1724.5 712.5M1692.5 650.206L1724.5 655.618M1724.5 712.5V655.618M1724.5 712.5V720M1724.5 720L1690 713V761.5L1724.5 767.5M1724.5 720V767.5M1724.5 767.5V772.5L1744.5 776M1724.5 655.618L1744.5 659V776M1784.5 815.791L1817 821.5V880.81M1784.5 815.791V873.5L1817 880.81M1817 880.81V936M1816.5 888L1784.09 881.5L1784.5 931L1817 936M1878 832.571L1911 836V898.5M1878 832.571V893L1911 898.5M1911 898.5V905M1911 905L1878 898.5V946.5L1911 951.796M1911 905V951.796M2027 1342.5V1326L1974 1313.5M902.5 1148L916.5 1158V1144L902.5 1148Z" stroke="black"/>
<path d="M1727.5 1279.5L1745.5 1284.5L1888 1250.5M1727.5 1279.5V1292.5M1727.5 1279.5L1750 1273.99M1888 1250.5L1883.5 1248.96M1888 1250.5V1254.66M2030.5 1343.5L2022 1346L2011.5 1339.54M2030.5 1343.5L2011.5 1339.54M2030.5 1343.5V1351.5M2011.5 1339.54L1957.84 1306.5M2030.5 1351.5L2026.5 1352.5V1364.5L2030.5 1366M2030.5 1351.5H2035.5V1364.5L2030.5 1366M2030.5 1351.5V1366M2030.5 1366V1792.5M1922 1847L1993 1827V1824.5M1922 1847V1871.5M1922 1847V1773M1766 1926L1922 1883V1879.5M1766 1926H1764M1766 1926V1625.5M1764 1926V1947M1764 1926L1658 1897M1764 1947L1926.5 1900.5V1880.5L1922 1879.5M1764 1947L1658 1916.5M1922 1879.5V1871.5M2030.5 1792.5V1795L1993 1805.5V1824.5M2030.5 1792.5L2033.5 1794V1813.5L1993 1824.5M1995 1824.5V1848L1922 1871.5M1658 1599V1897M1658 1599L1766 1625.5M1658 1599V1595.54M1658 1897L1598 1915M1658 1897V1916.5M1598 1915V1507M1598 1915V1935M1598 1915L1557.5 1904.5M1598 1507L1603 1504.5V1472M1598 1507L1557.5 1498.98M1603 1472L1605.5 1471V1463.5M1603 1472L1590.5 1474.5M1605.5 1463.5L1608 1462.5V1458.5M1605.5 1463.5L1590.5 1467M1608 1458.5L1590.5 1462.5V1467M1608 1458.5V1448.5M1590.5 1467V1474.5M1590.5 1474.5L1557.5 1467M1766 1625.5L1788 1619.84M1923.5 1585V1578.5M1923.5 1585L1902 1590.53M1923.5 1585V1587.5M1923.5 1578.5L1766 1620.5L1658 1595.54M1923.5 1578.5L1934 1575.5V1570.67M1653.5 1591.5V1594.5L1658 1595.54M1653.5 1591.5L1766 1616M1653.5 1591.5H1651V1585L1732 1496.5M1766 1616L1934 1570.67M1766 1616L1765.28 1603.5M1759.5 1503L1769 1500.5L1777.5 1504.03M1759.5 1503L1742.5 1498.98M1759.5 1503L1759.73 1507M1732 1496.5L1737 1490.5L1768.5 1499.5M1732 1496.5L1742.5 1498.98M1934 1570.67L1936.5 1570L1927.96 1566.46M1742.5 1498.98L1662 1588.5M1759.73 1507L1681 1591.5M1759.73 1507L1759.99 1511.5M1759.99 1511.5L1842 1591.5M1759.99 1511.5L1761.05 1530M1777.5 1504.03L1859.5 1587M1777.5 1504.03L1815.5 1519.79M1815.5 1519.79L1876.5 1582M1815.5 1519.79L1851.5 1534.73M1851.5 1534.73L1894.5 1578.5M1851.5 1534.73L1876.5 1545.1M1889.5 1550.5L1912 1574M1889.5 1550.5L1881 1546.97M1889.5 1550.5L1894.5 1549.14M1889.5 1550.5L1898 1554.03M1761.14 1531.5L1823.5 1594.5M1761.14 1531.5L1761.05 1530M1761.14 1531.5L1762.38 1553M1761.05 1530L1700 1596.5M1762.38 1553L1718.5 1601.5M1762.38 1553L1762.61 1557M1763.84 1578.5L1738.5 1605.5M1763.84 1578.5L1762.61 1557M1763.84 1578.5L1789.5 1605.5M1763.84 1578.5L1765.17 1601.5M1762.61 1557L1808.5 1601.5M1765.28 1603.5L1772.5 1611M1765.28 1603.5L1765.17 1601.5M1765.17 1601.5L1756.5 1611M1702 1770.38L1692.5 1768V1785M1702 1770.38L1712.25 1772.94M1702 1770.38V1802.47M1702 1839.91L1692.5 1837.5V1822.5M1702 1839.91L1712.25 1842.52M1702 1839.91V1808.46M1712.25 1772.94L1722.5 1775.5L1722.85 1792M1712.25 1772.94V1805.14M1712.25 1842.52L1724 1845.5L1723.68 1830.5M1712.25 1842.52V1811.12M1692.5 1785L1722.85 1792M1692.5 1785L1692.55 1806M1722.85 1792L1723.33 1814M1723.33 1814L1692.55 1806M1723.33 1814L1723.68 1830.5M1692.55 1806L1692.5 1822.5M1723.68 1830.5L1692.5 1822.5M1696.5 1623.07L1685 1620.5V1634.5M1696.5 1623.07L1707.5 1625.54M1696.5 1623.07V1650.76M1696.5 1685.07L1685 1682.5V1669.5M1696.5 1685.07L1707.5 1687.54M1696.5 1685.07V1656.49M1707.5 1687.54L1718.5 1690V1677M1707.5 1687.54V1659.12M1707.5 1625.54L1718.5 1628V1642.5M1707.5 1625.54V1653.39M1685 1634.5L1718.5 1642.5M1685 1634.5V1653.74M1718.5 1642.5V1661.74M1685 1653.74V1669.5M1685 1653.74L1696.5 1656.49M1718.5 1661.74V1677M1718.5 1661.74L1707.5 1659.12M1685 1669.5L1718.5 1677M1788 1619.84V1700L1785.5 1703.5L1792 1705.5L1833 1692.5L1829.5 1690V1609.17M1788 1619.84L1829.5 1609.17M1829.5 1609.17L1861 1601.07M1801.5 1623.23L1792 1625.54L1792.25 1642.02M1801.5 1623.23V1656.02M1801.5 1623.23L1811.25 1620.87M1801.5 1656.02L1821.5 1650.5L1821.25 1634.5M1801.5 1656.02L1792.5 1658.5L1792.25 1642.02M1811.25 1620.87L1821 1618.5L1821.25 1634.5M1811.25 1620.87L1811.5 1653.26M1792.25 1642.02L1821.25 1634.5M1801.5 1661.74L1792 1664.5L1792.12 1681.5M1801.5 1661.74V1695.77M1801.5 1661.74L1811.38 1658.88M1801.5 1695.77L1792.25 1698.5L1792.12 1681.5M1801.5 1695.77L1811.25 1692.88M1811.38 1658.88L1821.25 1656.02L1821.12 1673.01M1811.38 1658.88L1811.25 1692.88M1811.25 1692.88L1821 1690L1821.12 1673.01M1792.12 1681.5L1821.12 1673.01M1685 1648.02L1696.5 1650.76M1718.5 1656.02L1707.5 1653.39M1707.5 1659.12L1696.5 1656.49M1696.5 1650.76L1707.5 1653.39M1723.2 1808L1692.54 1800M1902 1590.53V1671.5L1904.5 1673.01V1674.5L1865 1685L1860 1684.5L1861 1601.07M1902 1590.53L1861 1601.07M1874 1643V1674.67M1874 1674.67L1865 1677V1661M1874 1674.67L1884 1672.09M1883.5 1639.9L1894 1637V1653.25M1883.5 1639.9L1865 1645V1661M1883.5 1639.9L1884 1672.09M1884 1672.09L1894 1669.5V1653.25M1865 1661L1894 1653.25M1884 1602.09L1894 1599.5V1615.5M1884 1602.09V1635.09M1884 1602.09L1874.5 1604.54M1884 1635.09L1894 1632.5V1615.5M1884 1635.09L1874 1637.67M1874.5 1604.54L1865 1607V1623.5M1874.5 1604.54L1874 1637.67M1874 1637.67L1865 1640V1623.5M1865 1623.5L1894 1615.5M1727.5 1292.5L1745.5 1296L1712 1335.5L1711.39 1311M1727.5 1292.5L1711.39 1311M1710.5 1275.5L1713 1274.5V1268.5M1710.5 1275.5L1674.5 1284.5M1710.5 1275.5L1711.01 1296M1713 1268.5L1693.5 1263.5M1713 1268.5L1674.5 1277M1713 1268.5L1732 1247.47M1693.5 1263.5L1666.5 1270.01M1693.5 1263.5L1713 1243.47M1652 1273.5V1279.5L1654 1279.94M1652 1273.5L1674.5 1277M1652 1273.5L1666.5 1270.01M1674.5 1284.5V1277M1674.5 1284.5L1654 1279.94M1654 1279.94V1284.5M1654 1371L1673 1375L1608 1448.5M1654 1371L1589 1443L1578 1446M1654 1371V1363.5M1608 1448.5L1598 1450.5M1598 1450.5L1578 1446M1598 1450.5V1458.5L1578 1454M1578 1446V1454M1578 1454L1567 1451.49M1197.5 1170V1181M1197.5 1181L1188.5 1179L1049.5 1322.5L1039 1327M1197.5 1181L1058.5 1327L1049.5 1329M1039 1327L1049.5 1329M1039 1327V1332M1049.5 1329V1336.5M1049.5 1336.5L1039 1334V1332M1049.5 1336.5L1059 1335.5M1059 1335.5L1195.16 1195.5M1059 1335.5L1065 1336.87M1654 1284.5V1292.5M1654 1284.5L1636.12 1280.75M1195.16 1195.5L1201 1189.5L1292.5 1208.69M1195.16 1195.5L1201 1196.73M1654 1292.5L1648.5 1291.34M1654 1292.5V1311M1292.5 1208.69L1334.82 1164M1292.5 1208.69L1298 1209.84M1815.5 1257.96L1800 1261.76M1815.5 1257.96L1810.5 1256.9M1815.5 1257.96L1829 1254.66M1334.82 1164L1340.5 1158L1534.5 1198.83M1334.82 1164L1340.5 1165.19M1800 1261.76L1784.5 1258.5M1800 1261.76L1781 1266.41M1340.5 1165.19L1298 1209.84M1340.5 1165.19L1356.5 1168.56M1298 1209.84L1314.5 1213.3M1356.5 1168.56L1314.5 1213.3M1356.5 1168.56L1374 1172.23M1314.5 1213.3L1332 1216.97M1374 1172.23L1332 1216.97M1374 1172.23L1392.5 1176.12M1332 1216.97L1350.5 1220.85M1392.5 1176.12L1350.5 1220.85M1392.5 1176.12L1410 1179.8M1350.5 1220.85L1367.5 1224.42M1410 1179.8L1367.5 1224.42M1410 1179.8L1427 1183.37M1367.5 1224.42L1387 1228.51M1427 1183.37L1387 1228.51M1427 1183.37L1444 1186.94M1387 1228.51L1404 1232.07M1444 1186.94L1404 1232.07M1444 1186.94L1462 1190.73M1404 1232.07L1420.5 1235.53M1462 1190.73L1420.5 1235.53M1462 1190.73L1479.5 1194.4M1420.5 1235.53L1437.5 1239.1M1479.5 1194.4L1437.5 1239.1M1479.5 1194.4L1497.5 1198.19M1437.5 1239.1L1457 1243.19M1497.5 1198.19L1457 1243.19M1497.5 1198.19L1516 1202.07M1457 1243.19L1473.5 1246.65M1516 1202.07L1473.5 1246.65M1516 1202.07L1532.5 1205.54M1473.5 1246.65L1491.5 1250.42M1532.5 1205.54L1491.5 1250.42M1532.5 1205.54L1550 1209.22M1491.5 1250.42L1509.5 1254.2M1550 1209.22L1509.5 1254.2M1550 1209.22L1569.43 1213.3M1509.5 1254.2L1527.45 1257.96M1569.43 1213.3L1527.45 1257.96M1569.43 1213.3L1586.89 1216.97M1527.45 1257.96L1545.54 1261.76M1586.89 1216.97L1545.54 1261.76M1586.89 1216.97L1605.36 1220.85M1545.54 1261.76L1563.5 1265.52M1605.36 1220.85L1563.5 1265.52M1605.36 1220.85L1622.32 1224.42M1563.5 1265.52L1581 1269.19M1622.32 1224.42L1581 1269.19M1622.32 1224.42L1641.78 1228.51M1581 1269.19L1600.52 1273.28M1641.78 1228.51L1600.52 1273.28M1641.78 1228.51L1658.75 1232.07M1600.52 1273.28L1618.24 1277M1658.75 1232.07L1618.24 1277M1658.75 1232.07L1677 1235.91M1618.24 1277L1636.12 1280.75M1677 1235.91L1636.12 1280.75M1677 1235.91L1693.5 1239.37M1693.5 1239.37L1666.5 1270.01M1693.5 1239.37L1713 1243.47M1713 1243.47L1732 1247.47M1732 1247.47L1750 1251.25M1750 1251.25L1711.01 1296M1750 1251.25L1769 1255.24M1711.01 1296L1711.39 1311M1769 1255.24L1750 1273.99M1769 1255.24L1784.5 1258.5M1750 1273.99L1781 1266.41M1784.5 1258.5L1781 1266.41M1216 1199.9L1167 1251.31M1216 1199.9L1201 1196.73M1216 1199.9L1234.5 1203.82M1201 1196.73L1065 1336.87M1065 1336.87L1082.25 1340.81M1234.5 1203.82L1185 1255.68M1234.5 1203.82L1252.5 1207.62M1252.5 1207.62L1119 1349.2M1252.5 1207.62L1269.5 1211.21M1119 1349.2L1099.5 1344.75M1119 1349.2L1134.5 1352.74M1132 1312L1099.5 1344.75M1099.5 1344.75L1082.25 1340.81M1114 1308L1082.25 1340.81M1269.5 1211.21L1134.5 1352.74M1269.5 1211.21L1288.5 1215.23M1134.5 1352.74L1153.16 1357M1288.5 1215.23L1153.16 1357M1288.5 1215.23L1305.5 1218.83M1153.16 1357L1170 1360.84M1305.5 1218.83L1255.5 1271.25M1305.5 1218.83L1322.5 1222.42M1201 1327.5L1170 1360.84M1170 1360.84L1188.5 1365.07M1188.5 1365.07L1219.5 1330.5M1188.5 1365.07L1205.72 1369M1271.5 1275.07L1322.5 1222.42M1322.5 1222.42L1341 1226.33M1341 1226.33L1205.72 1369M1341 1226.33L1358.5 1230.03M1205.72 1369L1222.5 1372.83M1358.5 1230.03L1222.5 1372.83M1358.5 1230.03L1376 1233.73M1222.5 1372.83L1241 1377.05M1376 1233.73L1241 1377.05M1376 1233.73L1394 1237.53M1241 1377.05L1259 1381.16M1394 1237.53L1343.5 1290.18M1394 1237.53L1412 1241.34M1259 1381.16L1291 1346L1286.5 1344.75V1340.81L1288.5 1339M1259 1381.16L1277 1385.27M1412 1241.34L1362.8 1294.5M1412 1241.34L1429 1244.93M1277 1385.27L1309.5 1350.5L1326.43 1355M1277 1385.27L1294.5 1389.27M1429 1244.93L1448 1248.95M1429 1244.93L1374.89 1303M1294.5 1389.27L1311.5 1393.15M1294.5 1389.27L1326.43 1355M1448 1248.95L1311.5 1393.15M1448 1248.95L1466 1252.76M1311.5 1393.15L1330.5 1397.49M1466 1252.76L1330.5 1397.49M1466 1252.76L1485 1256.77M1330.5 1397.49L1349 1401.71M1485 1256.77L1434.5 1310.5M1485 1256.77L1502.25 1260.42M1381.5 1366L1349 1401.71M1381.5 1366L1379.5 1363.5L1381.5 1359.5M1381.5 1366L1417.5 1375M1349 1401.71L1367.5 1405.94M1400.5 1371L1367.5 1405.94M1367.5 1405.94L1384.5 1409.82M1417.5 1375L1384.5 1409.82M1417.5 1375L1468.5 1322.5V1319.5M1417.5 1375V1369M1384.5 1409.82L1402.5 1413.93M1468.5 1319.5L1519.5 1264.07M1468.5 1319.5L1466 1317M1519.5 1264.07L1502.25 1260.42M1519.5 1264.07L1538.5 1268.08M1451 1313.96L1502.25 1260.42M1402.5 1413.93L1538.5 1268.08M1402.5 1413.93L1421.5 1418.27M1538.5 1268.08L1556.5 1271.89M1556.5 1271.89L1421.5 1418.27M1556.5 1271.89L1574.5 1275.69M1421.5 1418.27L1439.5 1422.38M1475 1385.5L1439.5 1422.38M1475 1385.5L1476 1386L1491.5 1390M1475 1385.5V1382.5L1477.5 1379.85M1439.5 1422.38L1457.5 1426.49M1491.5 1390L1457.5 1426.49M1491.5 1390L1509.5 1394M1457.5 1426.49L1475 1430.48M1509.5 1394L1475 1430.48M1509.5 1394L1515 1395M1475 1430.48L1494 1434.82M1612.5 1283.73L1563.5 1337.5H1560.5M1612.5 1283.73L1592.51 1279.5M1612.5 1283.73L1631 1287.64M1545.54 1332.5L1592.51 1279.5M1545.54 1332.5L1526 1328.5M1545.54 1332.5L1560.5 1337.5M1592.51 1279.5L1574.5 1275.69M1526 1328.5L1574.5 1275.69M1526 1328.5L1477.5 1379.85M1631 1287.64L1494 1434.82M1631 1287.64L1648.5 1291.34M1494 1434.82L1512.5 1439.04M1648.5 1291.34L1512.5 1439.04M1512.5 1439.04L1532 1443.5M1618.24 1349.5L1654 1311M1618.24 1349.5L1636.12 1352.5M1618.24 1349.5H1612.5L1565 1400.5M1654 1311V1335M1636.12 1352.5L1654 1335M1636.12 1352.5L1652 1356.5M1654 1335V1357M1565 1405.94L1532 1443.5M1565 1405.94V1400.5M1565 1405.94L1603 1415.5M1532 1443.5L1549.5 1447.49M1582 1410.22L1549.5 1447.49M1549.5 1447.49L1567 1451.49M1603 1415.5L1567 1451.49M1603 1415.5V1409.82M1603 1415.5H1605.5L1654 1363.5M1192.5 1257.5L1157.5 1249L1110.5 1299.5M1192.5 1257.5L1145 1308L1144.53 1307.88M1192.5 1257.5L1195.16 1259V1264L1145 1315.5M1110.5 1299.5L1109 1303L1110.5 1308L1145 1315.5M1110.5 1299.5L1144.53 1307.88M1145 1315.5L1144.53 1307.88M1193.5 1321L1244 1268.5L1277 1276.38M1193.5 1321L1195.16 1324L1197 1327L1230.5 1334M1193.5 1321L1230.5 1327.5M1230.5 1334L1282 1281.5L1280.5 1277.5L1277 1276.38M1230.5 1334V1327.5M1277 1276.38L1230.5 1327.5M1373.5 1297L1326.43 1349.2M1373.5 1297L1369.5 1296L1336 1288.5L1288.5 1339M1373.5 1297L1374.89 1303M1326.43 1349.2L1288.5 1339M1326.43 1349.2V1355M1374.89 1303L1326.43 1355M1381.5 1359.5L1429 1309.5L1466 1317M1381.5 1359.5L1417.5 1369M1466 1317L1417.5 1369M1560.5 1337.5L1515 1390M1565 1342L1515 1395M1515 1395V1390M1515 1390L1477.5 1379.85M1603 1409.82L1565 1400.5M1603 1409.82L1652 1356.5M1654 1363.5V1357M1654 1357L1652 1356.5M1047.5 1389L1039.44 1392.22M1047.5 1446.5V1451M1047.5 1446.5V1426.75M1047.5 1446.5L1031.5 1443.12M1047.5 1382.5L1035.5 1379.5V1351M1047.5 1382.5L1072 1386M1047.5 1382.5V1407M1035.5 1351L1025.5 1349.2V1340.81H1021.5V1335.5L1039 1332M1035.5 1351L1182.5 1383.67M961 1428.24L957.5 1427.5V1425L974.332 1418.27M961 1428.24V1431.5L963 1431.95M961 1428.24L963 1428.66M1047.5 1451L963 1431.95M1047.5 1451V1454.5M963 1431.95V1434.5L970 1436.16M1047.5 1454.5L970 1436.16M1047.5 1454.5V1460M970 1436.16V1442L972.5 1442.58M1047.5 1460L972.5 1442.58M1047.5 1460V1462.5M972.5 1442.58V1557M1047.5 1770.5V1763.5M1047.5 1770.5H1045V1790L1067.5 1796.5V1775.5M1047.5 1770.5L1067.5 1775.5M972.5 1725.5V1720V1557M972.5 1725.5L1047.5 1744M972.5 1725.5H968.5V1744L1047.5 1763.5M1047.5 1744V1763.5M1047.5 1744V1685.5M1067.5 1775.5V1803L1072 1805M1072 1393.15L1099 1399.5M1072 1393.15V1805M1072 1393.15V1386M1099 1814L1072 1806.5V1805M1099 1814L1106.5 1810.5M1099 1814V1399.5M1106.5 1810.5L1107 1397.49M1106.5 1810.5L1186.22 1832.07M1191.5 1833.5V1815.5M1191.5 1833.5V1854.5L1344.5 1895M1191.5 1833.5L1186.22 1832.07M1191.5 1815.5L1205.5 1819.5M1191.5 1815.5L1213.25 1809M1205.5 1819.5L1260.5 1805V1816L1230 1825.5M1205.5 1819.5V1850.5M1230 1825.5V1834.5M1230 1825.5L1258 1831M1099 1399.5L1107 1397.49M1099 1399.5V1365.11M1107 1397.49V1366.89M1344.5 1895V1854.5M1344.5 1895L1390.5 1883M1344.5 1854.5L1390.5 1840.5M1344.5 1854.5L1329 1850.5M1390.5 1840.5V1883M1390.5 1840.5L1376.5 1837.5M1390.5 1840.5V1635.5M1390.5 1883L1400.5 1886M1400.5 1886V1890.5L1430 1897M1400.5 1886V1468.5M1430 1897L1436 1895L1517.5 1916.5V1920L1550 1928M1430 1897V1474.5M1550 1928L1557.5 1925.5M1550 1928V1502M1557.5 1925.5L1598 1935M1557.5 1925.5V1904.5M1557.5 1467V1498.98M1557.5 1467L1221 1392.22M1430 1438.67V1474.5M1400.5 1432.11V1468.5M1550 1465.75V1502M1230 1834.5L1218.5 1837.5M1230 1834.5L1257.85 1840.5M1218.5 1837.5V1847.5L1205.5 1850.5M1218.5 1837.5L1257.5 1846.5M1205.5 1850.5L1257.5 1863L1258 1831M1258 1831L1279.5 1837.5M1258 1831L1304 1818.5M1376.5 1837.5L1341 1828M1376.5 1837.5L1360.5 1841.88M1376.5 1837.5V1661.5M1329 1850.5V1864.5M1329 1850.5L1304 1844.5M1329 1850.5L1360.5 1841.88M1279.5 1869.5L1329 1881V1872.75M1279.5 1869.5V1837.5M1279.5 1869.5L1291 1864.5M1279.5 1837.5L1335 1824M1335 1824V1821M1335 1824V1834.5M1335 1623V1821M1324.5 1620V1824M1324.5 1824L1335 1821M1324.5 1824L1304 1818.5M1304 1818.5V1615M1304 1818.5L1267.5 1808.5M1251 1602.5V1805M1251 1805L1260.5 1802.5V1605M1251 1805L1235 1802.5M1235 1599.5V1802.5M1235 1802.5L1221 1806.68M1233 1566.5V1548L1390.5 1586.5V1605M1233 1566.5H1229V1572.5L1233 1574M1233 1566.5L1390.5 1605M1233 1574V1598L1376.5 1632.17M1233 1574L1390.5 1611M1390.5 1635.5V1611M1390.5 1635.5L1376.5 1632.17M1390.5 1611V1605M1267.5 1808.5V1635.5L1299.5 1643V1654M1267.5 1808.5L1278.5 1805V1800.5M1278.5 1638.08V1800.5M1290 1796.5L1295 1800.5L1299.5 1799V1654M1290 1796.5L1278.5 1800.5M1290 1796.5V1652.5L1299.5 1654M1335 1834.5L1304 1844.5M1335 1834.5L1341 1837.5M1304 1844.5V1852L1291 1856M1291 1856V1864.5M1291 1856L1329 1864.5M1291 1864.5L1329 1872.75M1329 1864.5V1872.75M1341 1837.5V1828M1341 1837.5L1360.5 1841.88M1341 1828L1352.5 1824V1815.5M1341 1828V1652.5L1352.5 1655.42M1352.5 1815.5H1364.5V1658.5M1352.5 1815.5V1655.42M1376.5 1661.5L1364.5 1658.5M1376.5 1661.5V1632.17M1352.5 1655.42L1364.5 1658.5M1047.5 1462.5L1022.5 1457V1526L1019.5 1527.5V1529.5L1047.5 1535M1047.5 1462.5V1468.5M1047.5 1535V1527.5M1047.5 1535V1605M1047.5 1527.5L1039.25 1526M1047.5 1527.5V1514.75M1047.5 1502V1496M1047.5 1502L1039.25 1500.25M1047.5 1502V1514.75M1047.5 1496L1039.25 1494M1047.5 1496V1482.25M1047.5 1468.5L1039.25 1467M1047.5 1468.5V1482.25M1039.25 1467L1031 1465.5V1478.75M1039.25 1467V1494M1039.25 1494L1031 1492V1478.75M1031 1478.75L1047.5 1482.25M1039.25 1500.25L1031 1498.5V1511.5M1039.25 1500.25V1526M1039.25 1526L1031 1524.5V1511.5M1031 1511.5L1047.5 1514.75M967.5 1559L972.5 1557M1047.5 1605L1022.5 1599.5V1675.5L1019.5 1677V1678.5L1047.5 1685.5M1047.5 1605V1611M1047.5 1685.5V1677M1047.5 1677L1039.25 1675.25M1047.5 1677V1662.5M1047.5 1648V1641.5M1047.5 1648L1039.25 1646.25M1047.5 1648V1662.5M1047.5 1641.5L1039.25 1639.79M1047.5 1641.5V1626.25M1047.5 1611L1039.25 1609.75M1047.5 1611V1626.25M1039.25 1609.75L1031 1608.5V1623.29M1039.25 1609.75V1639.79M1039.25 1639.79L1031 1638.08V1623.29M1031 1623.29L1047.5 1626.25M1039.25 1646.25L1031 1644.5V1659M1039.25 1646.25V1675.25M1039.25 1675.25L1031 1673.5V1659M1031 1659L1047.5 1662.5M1072 1359.11V1386M1430 1474.5L1437.5 1471M1430 1474.5L1400.5 1468.5M1437.5 1471V1440.33M1437.5 1471L1456 1474.94M1550 1502L1557.5 1498.98M1550 1502L1515 1494V1487.5M1557.5 1498.98V1904.5M1515 1458.5V1487.5M1394 1468.5V1463.5H1397.5V1458.5M1397.5 1431.44V1458.5M1182.5 1383.67V1417.5L1186.22 1418.27M1182.5 1383.67L1214 1390.67M1214 1424V1390.67M1214 1424L1221 1422M1214 1424L1213.25 1809M1214 1424L1186.22 1418.27M1214 1390.67L1221 1392.22M1221 1422V1392.22M1221 1422V1806.68M1221 1422L1255.5 1427.5M1213.25 1809L1221 1806.68M1186.22 1418.27V1832.07M1255.5 1427.5L1306.65 1438.67M1255.5 1427.5V1432.11V1550.5L1306.65 1562V1445.5V1438.67M1397.5 1458.5L1388 1456.43M1515 1487.5L1507 1485.8M1306.65 1438.67L1338 1445.5M1338 1445.5V1568L1388 1580V1456.43M1338 1445.5L1388 1456.43M1359.5 1457.33L1346 1454V1480.25M1359.5 1457.33V1509.48M1359.5 1457.33L1372 1460.42M1359.5 1509.48L1346 1506.5V1480.25M1359.5 1509.48L1372 1512.24M1372 1460.42L1384.5 1463.5V1489.25M1372 1460.42V1512.24M1372 1512.24L1384.5 1515V1489.25M1346 1480.25L1384.5 1489.25M1359.5 1515.49L1346 1512.24V1538.37M1359.5 1515.49V1567.31M1359.5 1515.49L1372 1518.49M1359.5 1567.31L1346 1564.5V1538.37M1359.5 1567.31L1372 1569.9M1372 1518.49L1384.5 1521.5V1547M1372 1518.49V1569.9M1372 1569.9L1384.5 1572.5V1547M1346 1538.37L1384.5 1547M1289.5 1441.01L1301.5 1443.5V1471M1289.5 1441.01V1491.81M1289.5 1441.01L1277.68 1438.67M1289.5 1491.81L1265.85 1487.5V1464.5M1289.5 1491.81L1301.5 1494V1471M1277.68 1438.67L1265.85 1436.5V1464.5M1277.68 1438.67V1489.66M1265.85 1464.5L1301.5 1471M1277.68 1496.65L1265.85 1494V1519.25M1277.68 1496.65V1547.49M1277.68 1496.65L1289.59 1499.33M1277.68 1547.49L1265.85 1544.5V1519.25M1277.68 1547.49L1289.59 1550.49M1289.59 1499.33L1301.5 1502V1527.75M1289.59 1499.33V1550.49M1289.59 1550.49L1301.5 1553.5V1527.75M1265.85 1519.25L1301.5 1527.75M1168 1500.75V1475.5L1157 1472.87M1168 1500.75V1526L1157 1523.67M1168 1500.75L1132.5 1492.75M1132.5 1492.75V1518.49L1157 1523.67M1132.5 1492.75V1467L1157 1472.87M1145 1469.99V1521.14M1157 1472.87V1523.67M1145 1412.79L1132.5 1409.82V1438.67M1145 1412.79V1463.26M1145 1412.79L1156.5 1415.53M1145 1463.26L1132.5 1460.42V1438.67M1145 1463.26L1156.5 1465.88M1156.5 1415.53L1168 1418.27V1446.5M1156.5 1415.53V1465.88M1156.5 1465.88L1168 1468.5V1446.5M1132.5 1438.67L1168 1446.5M1147.5 1603.16L1137.5 1600.74V1649.5M1147.5 1603.16L1155.14 1605M1147.5 1603.16L1147 1651.75M1147.5 1748.59L1137.5 1746.01V1656.11L1164 1662.28L1165.5 1753.25L1155.14 1750.57M1147.5 1748.59L1155.14 1750.57M1147.5 1748.59L1147 1658.32M1155.14 1605L1164 1607.14V1655.48M1155.14 1605V1653.54M1155.14 1750.57V1660.21M1127.18 1598.25L1122 1597V1623.29M1127.18 1598.25L1132.36 1599.5V1648.53M1127.18 1598.25L1127 1647.35M1127.18 1743.34L1132.36 1744.68V1654.91L1122 1652.5M1127.18 1743.34L1122 1742V1712M1127.18 1743.34L1127 1653.66M1174.82 1609.75L1169.64 1608.5V1656.72M1174.82 1609.75L1180 1611V1638.08M1174.82 1609.75V1657.86M1174.82 1755.68L1180 1757V1726.75M1174.82 1755.68L1169.64 1754.36V1663.59L1180 1666V1696.5M1174.82 1755.68V1664.79M1122 1623.29L1180 1638.08M1122 1623.29V1646.25M1180 1638.08V1659L1122 1646.25M1122 1646.25V1652.5M1122 1652.5V1682M1122 1682V1712M1122 1682L1132.36 1684.5M1180 1696.5V1726.75M1180 1696.5L1169.64 1694M1122 1712L1132.36 1714.5M1180 1726.75L1169.64 1724M1137.5 1685.5L1164.5 1692.5M1165 1723L1137.5 1716M1456 1474.94V1598.5L1453.5 1600L1503.5 1612.5L1507 1611V1485.8M1456 1474.94L1507 1485.8M1477 1488.43L1464.5 1485.8V1512.08M1477 1488.43V1541.14M1477 1488.43L1490.25 1491.21M1477 1541.14L1464.5 1538.37V1512.08M1477 1541.14L1490.25 1544.07M1490.25 1491.21L1503.5 1494V1520.5M1490.25 1491.21V1544.07M1490.25 1544.07L1503.5 1547V1520.5M1464.5 1512.08L1503.5 1520.5M1464.5 1570V1595.5L1477 1598.54M1464.5 1570V1544.5L1477 1547.38M1464.5 1570L1503.5 1579.25M1503.5 1579.25V1553.5L1490.25 1550.44M1503.5 1579.25V1605L1490.25 1601.77M1477 1547.38V1598.54M1477 1547.38L1490.25 1550.44M1477 1598.54L1490.25 1601.77M1490.25 1550.44V1601.77M1458.75 1678.5L1463.5 1679.5V1706M1458.75 1678.5L1454 1677.5V1704.5M1458.75 1678.5V1728M1458.75 1728L1454 1727V1704.5M1458.75 1728L1463.5 1729V1706M1454 1704.5L1463.5 1706M1479 1683.37L1469 1681V1708M1479 1683.37V1732.87M1479 1683.37L1488.75 1685.69M1479 1732.87L1469 1730.5V1708M1479 1732.87L1488.75 1735.19M1488.75 1685.69L1498.5 1688V1714.5M1488.75 1685.69V1735.19M1488.75 1735.19L1498.5 1737.5V1714.5M1469 1708L1498.5 1714.5M1509.25 1691L1513.5 1692V1716.75M1509.25 1691L1505 1690V1714.75M1509.25 1691V1740.25M1509.25 1740.25L1505 1739.5V1714.75M1509.25 1740.25L1513.5 1741V1716.75M1505 1714.75L1513.5 1716.75M1458.25 1734.03L1462.5 1735.19V1767M1458.25 1734.03L1454 1732.87V1765M1458.25 1734.03V1826.25M1458.25 1826.25L1454 1825.5V1794.75M1458.25 1826.25L1462.5 1827V1797M1454 1765L1462.5 1767M1454 1765V1794.75M1462.5 1767V1797M1454 1794.75L1462.5 1797M1479 1739.87L1469 1737.5V1768.5M1479 1739.87V1832.54M1479 1739.87L1488.75 1742.19M1479 1832.54L1469 1830V1798.75M1479 1832.54L1488.75 1835.02M1488.75 1742.19L1498.5 1744.5V1774M1488.75 1742.19V1835.02M1488.75 1835.02L1498.5 1837.5V1806.25M1469 1768.5L1498.5 1774M1469 1768.5V1798.75M1498.5 1774V1806.25M1469 1798.75L1498.5 1806.25M1509.25 1747.25L1513.5 1748.5V1777.5M1509.25 1747.25L1505 1746V1776M1509.25 1747.25V1839M1509.25 1839L1505 1837.5V1808.5M1509.25 1839L1513.5 1840.5V1810.5M1505 1776L1513.5 1777.5M1505 1776V1808.5M1513.5 1777.5V1810.5M1505 1808.5L1513.5 1810.5M1765.5 1351.96L1755.5 1354.5V1367.5M1765.5 1351.96V1377.96M1765.5 1351.96L1775.25 1349.48M1765.5 1377.96L1755.5 1380.5V1367.5M1765.5 1377.96L1775.25 1375.48M1775.25 1349.48L1785 1347V1360M1775.25 1349.48V1375.48M1775.25 1375.48L1785 1373V1360M1755.5 1367.5L1785 1360M1765.5 1383.13L1755.5 1385.5V1397.5M1765.5 1383.13V1407.13M1765.5 1383.13L1775.25 1380.81M1765.5 1407.13L1755.5 1409.5V1397.5M1765.5 1407.13L1775.25 1404.81M1775.25 1380.81L1785 1378.5V1390.5M1775.25 1380.81V1404.81M1775.25 1404.81L1785 1402.5V1390.5M1755.5 1397.5L1785 1390.5M1893 1399.85L1881 1402.5V1417.25M1893 1399.85V1428.88M1893 1399.85L1906.25 1396.93M1893 1428.88L1881 1432V1417.25M1893 1428.88L1906.25 1425.44M1906.25 1396.93L1919.5 1394V1408M1906.25 1396.93V1425.44M1906.25 1425.44L1919.5 1422V1408M1881 1417.25L1919.5 1408M1893 1434.04L1881 1437V1450.75M1893 1434.04V1461.38M1893 1434.04L1906.25 1430.77M1893 1461.38L1881 1464.5V1450.75M1893 1461.38L1906.25 1457.94M1906.25 1430.77L1919.5 1427.5V1441M1906.25 1430.77V1457.94M1906.25 1457.94L1919.5 1454.5V1441M1881 1450.75L1919.5 1441M1988.66 1377L1976.5 1380V1394M1988.66 1377V1404.68M1988.66 1377L2001.83 1373.75M1988.66 1404.68L1976.5 1408V1394M1988.66 1404.68L2001.83 1401.09M2001.83 1373.75L2015 1370.5V1384M2001.83 1373.75V1401.09M2001.83 1401.09L2015 1397.5V1384M1976.5 1394L2015 1384M2001.83 1407.31L2013.5 1404.68V1417.73M2001.83 1407.31V1434M2001.83 1407.31L1989.16 1410.15M2001.83 1434L2013.5 1430.77V1417.73M2001.83 1434L1989.16 1437.5M1989.16 1410.15L1976.5 1413V1427M1989.16 1410.15V1437.5M1989.16 1437.5L1976.5 1441V1427M1976.5 1427L2013.5 1417.73M2001 1493.54L2013.5 1490.5V1508.75M2001 1493.54V1530.21M2001 1493.54L1988.75 1496.52M2001 1530.21L2013.5 1527V1508.75M2001 1530.21L1988.75 1533.35M1988.75 1496.52L1976.5 1499.5V1518M1988.75 1496.52V1533.35M1988.75 1533.35L1976.5 1536.5V1518M1976.5 1518L2013.5 1508.75M1988.66 1539.05L1976.5 1542.5V1560.5M1988.66 1539.05V1575.21M1988.66 1539.05L2001.08 1535.52M1988.66 1575.21L1976.5 1578.5V1560.5M1988.66 1575.21L2001.08 1571.86M2001.08 1535.52L2013.5 1532V1550.25M2001.08 1535.52V1571.86M2001.08 1571.86L2013.5 1568.5V1550.25M1976.5 1560.5L2013.5 1550.25M1927.96 1566.46L1926.5 1506L1876.5 1518V1545.1M1927.96 1566.46L1919 1562.74M1876.5 1545.1L1881 1546.97M1881 1546.97V1539.05M1907 1518L1919 1515V1528.75M1907 1518V1545.75M1907 1518L1894 1521.25M1907 1545.75L1919 1542.5V1528.75M1907 1545.75L1894.5 1549.14M1894 1521.25L1881 1524.5V1539.05M1894 1521.25L1894.5 1549.14M1881 1539.05L1919 1528.75M1898 1554.03L1907 1551.93M1898 1554.03L1907 1557.76M1919 1562.74V1549.14L1907 1551.93M1919 1562.74L1907 1557.76M1907 1551.93V1557.76M1994 1639.9V1643L1992 1643.54M1994 1639.9L1923.5 1659M1994 1639.9L2000 1638.5V1633M1923.5 1659V1654M1923.5 1659V1662.09M2000 1633L2002.5 1632M2000 1633L1994 1634.65M2000 1633L2001.08 1674.67M1923.5 1654V1628.5M1923.5 1654L1941.75 1648.99M1923.5 1587.5L1925.5 1586.9M1923.5 1587.5V1607M1933.5 1584.5L1999 1617L2000.75 1622.75M1933.5 1584.5L1949 1593.32M1933.5 1584.5L1925.5 1586.9M2002.5 1632V1629.5M2002.5 1632L2013.5 1629.5V1650.39M2000.75 1622.75L1960.75 1600M2000.75 1622.75L2001.89 1626.5M1949 1593.32L1994 1634.65M1949 1593.32L1960.75 1600M1994 1634.65L1977.5 1639.18M1960.75 1600L2002.5 1629.5M2002.5 1629.5V1628.5L2001.89 1626.5M1925.5 1586.9L1977.5 1639.18M1977.5 1639.18L1960 1643.98M1923.5 1607L1960 1643.98M1923.5 1607V1628.5M1960 1643.98L1941.75 1648.99M1923.5 1628.5L1941.75 1648.99M1923.5 1662.09L1922 1662.5V1670M1923.5 1662.09L1992 1643.54M1922 1670L1969.5 1657V1755.5L1974 1758L1922 1773M1922 1670V1773M1936.5 1671.28L1923.5 1674.67V1696.09M1936.5 1671.28V1714.17M1936.5 1671.28L1949.5 1667.89M1936.5 1714.17L1923.5 1717.5V1696.09M1936.5 1714.17L1949.5 1710.83M1949.5 1667.89L1962.5 1664.5V1686M1949.5 1667.89V1710.83M1949.5 1710.83L1962.5 1707.5V1686M1923.5 1696.09L1962.5 1686M1949.5 1717.44L1962.5 1714.17V1733.83M1949.5 1717.44V1757.33M1949.5 1717.44L1936.5 1720.72M1949.5 1757.33L1962.5 1753.5V1733.83M1949.5 1757.33L1936.5 1761.17M1936.5 1720.72L1923.5 1724V1744.5M1936.5 1720.72V1761.17M1936.5 1761.17L1923.5 1765V1744.5M1923.5 1744.5L1962.5 1733.83M2001.89 1626.5L2021.5 1621V1719.5L2024.5 1720.72V1722.5L1992 1731.5V1724M1992 1643.54V1656.02M1992 1677L2001.08 1674.67M1992 1677V1656.02M1992 1677V1683M2001.08 1674.67L2013.5 1671.28V1650.39M1992 1656.02L2013.5 1650.39M1992 1683L2002.5 1680M1992 1683V1703.5M1992 1724L2002.5 1720.72M1992 1724V1703.5M2002.5 1680L2013.5 1677V1697.25M2002.5 1680V1720.72M2002.5 1720.72L2013.5 1717.5V1697.25M1992 1703.5L2013.5 1697.25M974.332 1418.27L963 1428.66M974.332 1418.27L1007 1405.2M963 1428.66L980.5 1432.36M1007 1405.2L980.5 1432.36M1007 1405.2L1039.44 1392.22M980.5 1432.36L998.506 1436.16M1039.44 1392.22L998.506 1436.16M998.506 1436.16L1015.5 1439.74M1047.5 1407L1015.5 1439.74M1047.5 1407V1426.75M1015.5 1439.74L1031.5 1443.12M1047.5 1426.75L1031.5 1443.12M1534.5 1198.83L1730.5 1155L1734.13 1161M1534.5 1198.83L1553 1202.72M1765 1212L1881.5 1184L1886.17 1191.5M1765 1212L1734.13 1161M1765 1212L1749.57 1215.66M1686 1230.71L1705.5 1234.5M1686 1230.71L1662.58 1225.78M1686 1230.71L1652 1179.92M1686 1230.71L1700.5 1227.27M1957.84 1306.5L1886.17 1191.5M1957.84 1306.5L1951.5 1302.6M1886.17 1191.5L1881.5 1192.61M1705.5 1234.5L1718.5 1231.41M1705.5 1234.5L1724.5 1238.55M1553 1202.72L1568 1199.26M1553 1202.72L1572 1206.72M1734.13 1161L1717.32 1164.87M1568 1199.26L1572 1206.72M1568 1199.26L1585.5 1195.23M1572 1206.72L1595 1211.56M1585.5 1195.23L1595 1211.56M1585.5 1195.23L1603 1191.2M1595 1211.56L1618.24 1216.45M1603 1191.2L1618.24 1216.45M1603 1191.2L1618.24 1187.69M1618.24 1216.45L1639.16 1220.85M1618.24 1187.69L1639.16 1220.85M1618.24 1187.69L1636.12 1183.58M1639.16 1220.85L1662.58 1225.78M1636.12 1183.58L1662.58 1225.78M1636.12 1183.58L1652 1179.92M1652 1179.92L1668 1176.23M1668 1176.23L1700.5 1227.27M1668 1176.23L1686 1172.09M1700.5 1227.27L1718.5 1223.01M1686 1172.09L1718.5 1223.01M1686 1172.09L1700.5 1168.75M1718.5 1223.01L1734.13 1219.31M1700.5 1168.75L1734.13 1219.31M1700.5 1168.75L1717.32 1164.87M1734.13 1219.31L1749.57 1215.66M1717.32 1164.87L1749.57 1215.66M1718.5 1231.41L1724.5 1238.55M1718.5 1231.41L1735.86 1227.27M1724.5 1238.55L1745.5 1243.03M1735.86 1227.27L1745.5 1243.03M1735.86 1227.27L1752.5 1223.31M1745.5 1243.03L1767.5 1247.72M1752.5 1223.31L1767.5 1247.72M1752.5 1223.31L1769 1219.39M1767.5 1247.72L1789.89 1252.5M1769 1219.39L1789.89 1252.5M1769 1219.39L1786.5 1215.22M1789.89 1252.5L1810.5 1256.9M1786.5 1215.22L1810.5 1256.9M1786.5 1215.22L1802.5 1211.41M1802.5 1211.41L1829 1254.66M1802.5 1211.41L1819 1207.49M1829 1254.66L1845.99 1250.5M1819 1207.49L1845.99 1250.5M1819 1207.49L1835.5 1203.56M1845.99 1250.5L1863 1246.34M1835.5 1203.56L1863 1246.34M1835.5 1203.56L1853 1199.4M1863 1246.34L1870.5 1244.5L1883.5 1248.96M1853 1199.4L1883.5 1248.96M1853 1199.4L1869.59 1195.45M1888 1254.66V1263.5L1895 1267.81M1888 1254.66L1895 1267.81M1895 1267.81L1926.42 1287.15M1869.59 1195.45L1926.42 1287.15M1869.59 1195.45L1881.5 1192.61M1926.42 1287.15L1951.5 1302.6M1881.5 1192.61L1951.5 1302.6M1658 1916.5L1598 1935M1683.5 1758.5L1727.5 1769.5V1852.5L1724 1854L1680 1843.5V1840.5H1683.5V1758.5ZM1722.5 1622V1692.5L1723.27 1694.5V1697L1718.5 1698.5L1674.5 1688V1685.5H1676.5V1611L1722.5 1622ZM1124 1401.5L1172.5 1412.5V1532.5H1168L1124 1521.5V1401.5ZM1115 1589V1744L1111.5 1746.5L1180 1765.5L1182 1763.5V1605L1115 1589ZM1446 1669V1828L1443 1830L1515 1848.5L1517 1847V1686.5L1446 1669ZM1752 1349.5V1414V1416.5L1755.5 1418L1796.5 1407V1405.5H1793V1339L1752 1349.5ZM1877.5 1397.5L1927 1385.5V1456.5L1930.5 1457.5V1459.5L1877.5 1472.5V1397.5ZM1972.5 1374.5L2022 1361.5V1434.04H2024.5V1436L1976.5 1448.5H1972.5V1374.5ZM1972.5 1494.5L2022 1481.5V1570L2024.5 1570.67V1572.5L1976.5 1585H1972.5V1494.5Z" stroke="black"/>
</svg>
